<?xml version="1.0" encoding="UTF-8" standalone="no"?>
<svg
   viewBox="0 0 16 16"
   version="1.1"
   id="svg2"
   sodipodi:docname="dzen.svg"
   width="16"
   height="16"
   inkscape:version="1.4.3 (0d15f75042, 2025-12-25)"
   xmlns:inkscape="http://www.inkscape.org/namespaces/inkscape"
   xmlns:sodipodi="http://sodipodi.sourceforge.net/DTD/sodipodi-0.dtd"
   xmlns="http://www.w3.org/2000/svg"
   xmlns:svg="http://www.w3.org/2000/svg">
  <defs
     id="defs2" />
  <sodipodi:namedview
     id="namedview2"
     pagecolor="#ffffff"
     bordercolor="#000000"
     borderopacity="0.25"
     inkscape:showpageshadow="2"
     inkscape:pageopacity="0.0"
     inkscape:pagecheckerboard="0"
     inkscape:deskcolor="#d1d1d1"
     inkscape:zoom="13.982143"
     inkscape:cx="7.6526181"
     inkscape:cy="17.41507"
     inkscape:window-width="1920"
     inkscape:window-height="1019"
     inkscape:window-x="0"
     inkscape:window-y="0"
     inkscape:window-maximized="1"
     inkscape:current-layer="svg2" />
  <path
     fill="#2c3036"
     d="M 9.5428571,9.5428571 C 8.2857143,10.84 8.1942857,12.457143 8.0857143,16 11.388571,16 13.668571,15.988571 14.845714,14.845714 15.988571,13.668571 16,11.28 16,8.0857143 12.457143,8.2 10.84,8.2857143 9.5428571,9.5428571 M 0,8.0857143 C 0,11.28 0.01142857,13.668571 1.1542857,14.845714 2.3314286,15.988571 4.6114286,16 7.9142857,16 7.8,12.457143 7.7142857,10.84 6.4571428,9.5428571 5.16,8.2857143 3.5428571,8.1942857 0,8.0857143 M 7.9142857,0 C 4.6171428,0 2.3314286,0.01142857 1.1542857,1.1542857 0.01142857,2.3314286 0,4.72 0,7.9142857 3.5428571,7.8 5.16,7.7142857 6.4571428,6.4571428 7.7142857,5.16 7.8057143,3.5428571 7.9142857,0 M 9.5428571,6.4571428 C 8.2857143,5.16 8.1942857,3.5428571 8.0857143,0 11.388571,0 13.668571,0.01142857 14.845714,1.1542857 15.988571,2.3314286 16,4.72 16,7.9142857 12.457143,7.8 10.84,7.7142857 9.5428571,6.4571428"
     id="path1"
     style="stroke-width:1" />
  <path
     fill="#ffffff"
     d="M 16,8.0857143 V 7.9142857 C 12.457143,7.8 10.84,7.7142857 9.5428571,6.4571428 8.2857143,5.16 8.1942857,3.5428571 8.0857143,0 H 7.9142857 C 7.8,3.5428571 7.7142857,5.16 6.4571428,6.4571428 5.16,7.7142857 3.5428571,7.8057143 0,7.9142857 V 8.0857143 C 3.5428571,8.2 5.16,8.2857143 6.4571428,9.5428571 7.7142857,10.84 7.8057143,12.457143 7.9142857,16 H 8.0857143 C 8.2,12.457143 8.2857143,10.84 9.5428571,9.5428571 10.84,8.2857143 12.457143,8.1942857 16,8.0857143"
     id="path2"
     style="stroke-width:1" />
</svg>
