<?xml version="1.0" encoding="UTF-8" standalone="no"?>
<svg
   width="16"
   height="16"
   viewBox="0 0 16 16"
   fill="none"
   version="1.1"
   id="svg2"
   sodipodi:docname="rutube.svg"
   inkscape:version="1.4.3 (0d15f75042, 2025-12-25)"
   xmlns:inkscape="http://www.inkscape.org/namespaces/inkscape"
   xmlns:sodipodi="http://sodipodi.sourceforge.net/DTD/sodipodi-0.dtd"
   xmlns="http://www.w3.org/2000/svg"
   xmlns:svg="http://www.w3.org/2000/svg">
  <sodipodi:namedview
     id="namedview2"
     pagecolor="#ffffff"
     bordercolor="#000000"
     borderopacity="0.25"
     inkscape:showpageshadow="2"
     inkscape:pageopacity="0.0"
     inkscape:pagecheckerboard="0"
     inkscape:deskcolor="#d1d1d1"
     inkscape:zoom="23.727273"
     inkscape:cx="8.091954"
     inkscape:cy="8.7873563"
     inkscape:window-width="1920"
     inkscape:window-height="1019"
     inkscape:window-x="0"
     inkscape:window-y="0"
     inkscape:window-maximized="1"
     inkscape:current-layer="svg2" />
  <g
     clip-path="url(#clip0_519_2005)"
     id="g2"
     transform="scale(0.12121212)"
     style="stroke-width:8.25">
    <rect
       width="132"
       height="132"
       fill="#100943"
       id="rect1"
       x="0"
       y="0"
       style="stroke-width:8.25" />
    <path
       d="m 132,66.0001 c 36.451,0 66,-29.5493 66,-66.0000694824 C 198,-36.4508 168.451,-66 132,-66 95.5492,-66 66,-36.4508 66,3.05176e-5 66,36.4508 95.5492,66.0001 132,66.0001 Z"
       fill="#ed143b"
       id="path1"
       style="stroke-width:68.0625" />
    <path
       d="M 81.5361,62.9865 H 42.5386 V 47.5547 h 38.9975 c 2.2779,0 3.8618,0.3971 4.6567,1.0904 0.7949,0.6934 1.2873,1.9794 1.2873,3.858 v 5.541 c 0,1.9793 -0.4924,3.2653 -1.2873,3.9587 -0.7949,0.6933 -2.3788,0.9897 -4.6567,0.9897 z M 84.2115,33.0059 H 26 V 99 H 42.5386 V 77.5294 h 30.479 L 87.4801,99 H 106 L 90.0546,77.4287 c 5.8787,-0.8712 8.5184,-2.6727 10.6954,-5.6418 2.177,-2.969 3.269,-7.7159 3.269,-14.051 v -4.9483 c 0,-3.7573 -0.398,-6.7263 -1.092,-9.0019 -0.694,-2.2757 -1.88,-4.255 -3.565,-6.0329 -1.7796,-1.683 -3.7609,-2.8683 -6.1397,-3.6624 C 90.8435,33.3971 87.8716,33 84.2115,33 Z"
       fill="#ffffff"
       id="path2"
       style="stroke-width:68.0625" />
  </g>
  <defs
     id="defs2">
    <clipPath
       id="clip0_519_2005">
      <rect
         width="132"
         height="132"
         rx="32"
         fill="#ffffff"
         id="rect2"
         x="0"
         y="0" />
    </clipPath>
  </defs>
</svg>
