<?xml version="1.0" encoding="UTF-8" standalone="no"?>
<!-- Created with Inkscape (http://www.inkscape.org/) -->

<svg
   width="4.233345mm"
   height="4.2333331mm"
   viewBox="0 0 4.233345 4.2333331"
   version="1.1"
   id="svg1"
   inkscape:version="1.4.3 (0d15f75042, 2025-12-25)"
   xml:space="preserve"
   sodipodi:docname="youtube.svg"
   xmlns:inkscape="http://www.inkscape.org/namespaces/inkscape"
   xmlns:sodipodi="http://sodipodi.sourceforge.net/DTD/sodipodi-0.dtd"
   xmlns="http://www.w3.org/2000/svg"
   xmlns:svg="http://www.w3.org/2000/svg"><sodipodi:namedview
     id="namedview1"
     pagecolor="#ffffff"
     bordercolor="#000000"
     borderopacity="0.25"
     inkscape:showpageshadow="2"
     inkscape:pageopacity="0.0"
     inkscape:pagecheckerboard="0"
     inkscape:deskcolor="#d1d1d1"
     inkscape:document-units="px"
     inkscape:zoom="15.78348"
     inkscape:cx="4.9418758"
     inkscape:cy="11.562722"
     inkscape:window-width="1920"
     inkscape:window-height="1019"
     inkscape:window-x="0"
     inkscape:window-y="0"
     inkscape:window-maximized="1"
     inkscape:current-layer="layer1" /><defs
     id="defs1" /><g
     inkscape:label="Layer 1"
     inkscape:groupmode="layer"
     id="layer1"
     transform="translate(-29.503417,-23.334522)"><rect
       style="fill:#ffffff;fill-rule:evenodd;stroke-width:0.264583;fill-opacity:1"
       id="rect8"
       width="2.5721982"
       height="2.0565734"
       x="30.380571"
       y="24.401333" /><path
       style="fill:#fe0000;stroke-width:1"
       d="m 31.195926,26.928821 c -0.547116,-0.01117 -1.028779,-0.04327 -1.20768,-0.08049 -0.164372,-0.0342 -0.310519,-0.154649 -0.374447,-0.308611 -0.04498,-0.108328 -0.08231,-0.357422 -0.102891,-0.686535 -0.01,-0.159952 -0.01,-0.620178 7.6e-5,-0.786512 0.01812,-0.300353 0.05241,-0.564553 0.08628,-0.664755 0.04883,-0.144462 0.16769,-0.267737 0.310068,-0.321573 0.215139,-0.08135 1.183044,-0.127097 2.200003,-0.103983 0.529106,0.01203 0.907262,0.03451 1.084084,0.06446 0.237804,0.04028 0.401906,0.186227 0.458466,0.40775 0.03557,0.139305 0.06706,0.389301 0.0817,0.64848 0.01034,0.183142 0.0043,0.682402 -0.01022,0.850649 -0.02133,0.24648 -0.05435,0.468002 -0.08251,0.553596 -0.05844,0.177639 -0.213711,0.312329 -0.404071,0.350522 -0.261758,0.05252 -0.870802,0.08284 -1.60678,0.08 -0.193084,-7.45e-4 -0.387518,-0.0021 -0.432076,-0.003 z m 0.573262,-1.159372 c 0.303288,-0.174161 0.549014,-0.318799 0.546057,-0.321419 -0.0067,-0.006 -1.102849,-0.634522 -1.106515,-0.634522 -0.0015,0 -0.0027,0.287347 -0.0027,0.638549 0,0.357422 0.0026,0.637558 0.0059,0.636298 0.0032,-0.0012 0.253996,-0.144745 0.557285,-0.318906 z"
       id="path1" /></g></svg>
