<?xml version="1.0" encoding="UTF-8" standalone="no"?>
<svg
   xmlns:dc="http://purl.org/dc/elements/1.1/"
   xmlns:cc="http://creativecommons.org/ns#"
   xmlns:rdf="http://www.w3.org/1999/02/22-rdf-syntax-ns#"
   xmlns:svg="http://www.w3.org/2000/svg"
   xmlns="http://www.w3.org/2000/svg"
   xmlns:sodipodi="http://sodipodi.sourceforge.net/DTD/sodipodi-0.dtd"
   xmlns:inkscape="http://www.inkscape.org/namespaces/inkscape"
   viewBox="0 0 24 24"
   width="24px"
   height="24px"
   version="1.1"
   id="svg4"
   sodipodi:docname="icons8-youtube-play.svg"
   inkscape:version="1.0.1 (3bc2e813f5, 2020-09-07)">
  <metadata
     id="metadata10">
    <rdf:RDF>
      <cc:Work
         rdf:about="">
        <dc:format>image/svg+xml</dc:format>
        <dc:type
           rdf:resource="http://purl.org/dc/dcmitype/StillImage" />
      </cc:Work>
    </rdf:RDF>
  </metadata>
  <defs
     id="defs8" />
  <sodipodi:namedview
     pagecolor="#ffffff"
     bordercolor="#666666"
     borderopacity="1"
     objecttolerance="10"
     gridtolerance="10"
     guidetolerance="10"
     inkscape:pageopacity="0"
     inkscape:pageshadow="2"
     inkscape:window-width="1920"
     inkscape:window-height="1017"
     id="namedview6"
     showgrid="false"
     inkscape:zoom="23.748688"
     inkscape:cx="9.3218967"
     inkscape:cy="14.431313"
     inkscape:window-x="-8"
     inkscape:window-y="-8"
     inkscape:window-maximized="1"
     inkscape:current-layer="svg4" />
  <path
     d="M 23.4984,5.0232 C 23.2224,3.9912 22.4088,3.1776 21.3768,2.9016 19.5048,2.4 12,2.4 12,2.4 12,2.4 4.4952,2.4 2.6232,2.9016 1.5912,3.1776 0.7776,3.9912 0.5016,5.0232 0,6.8952 0,12 0,12 c 0,0 0,5.1048 0.5016,6.9768 0.276,1.032 1.0896,1.8456 2.1216,2.1216 C 4.4952,21.6 12,21.6 12,21.6 c 0,0 7.5048,0 9.3768,-0.5016 1.0332,-0.276 1.8456,-1.0896 2.1216,-2.1216 C 24,17.1048 24,12 24,12 24,12 24,6.8952 23.4984,5.0232 Z M 9.6,16.1568 V 7.8432 L 16.8,12 Z"
     id="path2"
     style="stroke-width:1;fill:#ffffff;fill-opacity:1" />
</svg>
