<?xml version="1.0" encoding="UTF-8" standalone="no"?>
<svg
   xmlns:dc="http://purl.org/dc/elements/1.1/"
   xmlns:cc="http://creativecommons.org/ns#"
   xmlns:rdf="http://www.w3.org/1999/02/22-rdf-syntax-ns#"
   xmlns:svg="http://www.w3.org/2000/svg"
   xmlns="http://www.w3.org/2000/svg"
   xmlns:sodipodi="http://sodipodi.sourceforge.net/DTD/sodipodi-0.dtd"
   xmlns:inkscape="http://www.inkscape.org/namespaces/inkscape"
   version="1.1"
   id="Layer_1"
   x="0px"
   y="0px"
   width="24"
   height="24"
   viewBox="0 0 24 24"
   enable-background="new 0 0 250 250"
   xml:space="preserve"
   sodipodi:docname="stepik.svg"
   inkscape:version="1.0.1 (3bc2e813f5, 2020-09-07)"><metadata
   id="metadata9"><rdf:RDF><cc:Work
       rdf:about=""><dc:format>image/svg+xml</dc:format><dc:type
         rdf:resource="http://purl.org/dc/dcmitype/StillImage" /><dc:title></dc:title></cc:Work></rdf:RDF></metadata><defs
   id="defs7" /><sodipodi:namedview
   pagecolor="#ffffff"
   bordercolor="#666666"
   borderopacity="1"
   objecttolerance="10"
   gridtolerance="10"
   guidetolerance="10"
   inkscape:pageopacity="0"
   inkscape:pageshadow="2"
   inkscape:window-width="1920"
   inkscape:window-height="1017"
   id="namedview5"
   showgrid="false"
   fit-margin-top="0"
   fit-margin-left="0"
   fit-margin-right="0"
   fit-margin-bottom="0"
   inkscape:zoom="12.896915"
   inkscape:cx="4.7001624"
   inkscape:cy="13.863875"
   inkscape:window-x="-8"
   inkscape:window-y="-8"
   inkscape:window-maximized="1"
   inkscape:current-layer="Layer_1" />
<path
   fill="#ffffff"
   d="M 21.636,6.3 17.688,2.352 C 16.176,0.84 14.148,0 12,0 9.852,0 7.824,0.84 6.3,2.364 L 2.364,6.3 C 0.84,7.824 0,9.852 0,12 c 0,2.148 0.84,4.176 2.364,5.7 l 3.948,3.948 C 7.824,23.16 9.852,24 12,24 c 2.088,0 4.08,-0.804 5.592,-2.256 l 0.012,-0.012 0.012,-0.012 4.032,-4.032 C 23.16,16.176 24,14.148 24,12 24,9.852 23.16,7.824 21.636,6.3 Z m -2.76,8.64 -3.996,4.008 c -0.744,0.72 -1.764,1.164 -2.892,1.164 -1.152,0 -2.184,-0.468 -2.94,-1.224 l 1.944,-1.944 c 0.252,0.252 0.612,0.42 0.996,0.42 0.396,0 0.744,-0.156 0.996,-0.42 l 3.948,-3.948 c 0.252,-0.252 0.42,-0.612 0.42,-0.996 0,-0.396 -0.156,-0.744 -0.42,-0.996 -0.252,-0.252 -0.612,-0.42 -0.996,-0.42 -0.396,0 -0.744,0.156 -0.996,0.42 l -3.948,3.948 c -0.756,0.756 -1.8,1.224 -2.94,1.224 -1.152,0 -2.184,-0.468 -2.94,-1.224 -0.756,-0.756 -1.224,-1.8 -1.224,-2.94 0,-1.152 0.468,-2.184 1.224,-2.94 L 9.06,5.124 C 9.816,4.368 10.86,3.9 12,3.9 c 1.152,0 2.184,0.468 2.94,1.224 L 12.996,7.068 C 12.744,6.816 12.384,6.648 12,6.648 c -0.396,0 -0.744,0.156 -0.996,0.42 l -3.948,3.948 c -0.252,0.252 -0.42,0.612 -0.42,0.996 0,0.396 0.156,0.744 0.42,0.996 0.252,0.252 0.612,0.42 0.996,0.42 0.396,0 0.744,-0.156 0.996,-0.42 L 12.996,9.06 c 0.756,-0.756 1.8,-1.224 2.94,-1.224 1.14,0 2.184,0.468 2.94,1.224 0.756,0.756 1.224,1.8 1.224,2.94 0,1.152 -0.468,2.184 -1.224,2.94 z"
   id="path2"
   style="stroke-width:0.12" />
</svg>
