<?xml version="1.0" encoding="UTF-8" standalone="no"?>
<!-- Created with Inkscape (http://www.inkscape.org/) -->

<svg
   width="16.933332mm"
   height="16.933332mm"
   viewBox="0 0 16.933332 16.933332"
   version="1.1"
   id="svg1"
   inkscape:version="1.4.3 (0d15f75042, 2025-12-25)"
   sodipodi:docname="2026.02.02.svg"
   xml:space="preserve"
   inkscape:export-filename="kompas.svg"
   inkscape:export-xdpi="96"
   inkscape:export-ydpi="96"
   xmlns:inkscape="http://www.inkscape.org/namespaces/inkscape"
   xmlns:sodipodi="http://sodipodi.sourceforge.net/DTD/sodipodi-0.dtd"
   xmlns="http://www.w3.org/2000/svg"
   xmlns:svg="http://www.w3.org/2000/svg"><sodipodi:namedview
     id="namedview1"
     pagecolor="#ffffff"
     bordercolor="#000000"
     borderopacity="0.25"
     inkscape:showpageshadow="2"
     inkscape:pageopacity="0.0"
     inkscape:pagecheckerboard="0"
     inkscape:deskcolor="#d1d1d1"
     inkscape:document-units="px"
     inkscape:zoom="1"
     inkscape:cx="282"
     inkscape:cy="302.5"
     inkscape:window-width="1920"
     inkscape:window-height="1019"
     inkscape:window-x="0"
     inkscape:window-y="0"
     inkscape:window-maximized="1"
     inkscape:current-layer="layer1"><inkscape:page
       x="0"
       y="0"
       width="16.933332"
       height="16.933332"
       id="page2"
       margin="0"
       bleed="0" /></sodipodi:namedview><defs
     id="defs1" /><g
     inkscape:label="Layer 1"
     inkscape:groupmode="layer"
     id="layer1"
     transform="translate(-110.98384,-22.860394)"><path
       d="m 116.07533,29.042097 c -0.019,-0.521111 -0.004,-0.761101 0.46825,-0.954621 0.14459,-0.05934 0.60353,-0.250458 0.6686,0.03051 0.15645,0.675725 -1.03338,0.950566 -1.11481,1.470744 -0.0415,0.265174 0.29523,0.891534 0.50998,0.989688 0.25033,0.114378 0.35897,-0.246988 0.27612,-0.45672 -0.0757,-0.191797 -0.20482,-0.346183 -0.28136,-0.539321 0.42399,-0.189225 0.98788,-0.757045 1.11598,-1.283241 0.15824,-0.650037 -0.57396,-0.955937 -0.99892,-0.851694 -0.56335,0.138175 -1.73234,1.230528 -0.64384,1.594621 m 10.18444,2.026169 c 0.2351,-0.341984 0.55909,-0.567808 0.77033,-0.945589 0.41876,-0.748897 0.27804,-2.491993 -0.70865,-1.465228 -0.66838,0.695537 -0.9053,2.584943 -0.69068,3.558982 0.0997,0.452509 0.34499,1.170276 0.86311,1.085115 0.66517,-0.109353 1.07284,-1.765314 0.50227,-2.244634 -0.19046,-0.160009 -0.52144,-0.0084 -0.73638,0.01077 m -0.23415,-0.540259 c 0.0352,-0.235814 0.10456,-0.453968 0.18385,-0.675389 0.0563,-0.157544 0.1121,-0.316716 0.17198,-0.472501 0.0504,-0.13114 0.41885,-0.723246 0.51797,-0.316237 0.13064,0.536401 -0.47753,1.335776 -0.8738,1.464127 m -13.28869,0.153318 c 0.007,0.263654 0.17647,0.669491 0.41487,0.298972 0.21609,-0.335822 -0.17561,-0.848451 -0.4734,-0.851227 -0.49153,-0.0048 -0.87902,0.673344 -0.99801,1.159843 -0.24605,1.005948 0.52281,1.452498 1.29067,1.283504 0.18659,-0.04104 0.52588,-0.02596 0.64131,-0.231913 0.0836,-0.149169 0.0316,-0.406842 -0.12789,-0.455871 -0.38396,-0.118086 -0.78207,0.383021 -1.21255,0.166553 -0.58526,-0.294306 0.0694,-1.275763 0.465,-1.369861 m 7.8453,1.129756 c 0.008,0.230932 0.38973,1.39312 0.606,0.732602 0.11127,-0.339663 -0.19387,-1.231329 -0.25016,-1.610617 -0.0212,-0.142756 -0.0309,-0.374335 -0.14949,-0.4622 -0.0994,-0.07358 -0.27864,0.03087 -0.38195,0.05695 -0.0952,-0.519425 -0.56783,-0.56161 -0.93644,-0.347906 -0.4793,0.27788 -0.78798,0.948459 -0.72854,1.563621 0.0433,0.448047 0.32661,1.024612 0.78702,0.866326 0.42994,-0.147817 0.64969,-0.656785 1.05356,-0.798788 m 2.93501,-1.345933 c -0.26437,0.161564 -0.14604,0.686492 0.16087,0.526244 0.30542,-0.159471 0.16263,-0.723964 -0.16087,-0.526244 m -3.57905,0.197887 0.11701,0.540314 0.35118,-0.06748 c -0.10038,0.191522 -0.21754,0.367408 -0.34526,0.536665 -0.92974,1.232154 -1.28108,-0.980811 -0.12298,-1.009441 m 6.55545,0.898641 c 0.69752,-0.105883 0.36186,1.165262 -0.0638,1.261203 -0.52521,0.118445 -0.63599,-1.154985 0.0638,-1.261203 m -3.04037,0.310434 c -0.29231,0.1295 -0.19586,0.623932 0.11342,0.518444 0.33711,-0.114976 0.2459,-0.677615 -0.11342,-0.518444 m -7.31729,0.28257 c -0.3101,0.171243 -0.1256,0.742915 0.1479,0.545841 0.20802,-0.149899 0.15644,-0.713902 -0.1479,-0.545841"
       style="fill:#333333;fill-opacity:1;stroke:none;stroke-width:1"
       id="path4"
       sodipodi:nodetypes="cccscccssccssccsccccsccscscccscccsccscsccsccccccccccsccsc" /></g></svg>
