<?xml version="1.0" encoding="UTF-8" standalone="no"?>
<!-- Created with Inkscape (http://www.inkscape.org/) -->

<svg
   width="16.933332mm"
   height="16.933332mm"
   viewBox="0 0 16.933332 16.933332"
   version="1.1"
   id="svg1"
   inkscape:version="1.4.3 (0d15f75042, 2025-12-25)"
   sodipodi:docname="construction-elements.svg"
   xml:space="preserve"
   inkscape:export-filename="kompas.svg"
   inkscape:export-xdpi="96"
   inkscape:export-ydpi="96"
   xmlns:inkscape="http://www.inkscape.org/namespaces/inkscape"
   xmlns:sodipodi="http://sodipodi.sourceforge.net/DTD/sodipodi-0.dtd"
   xmlns="http://www.w3.org/2000/svg"
   xmlns:svg="http://www.w3.org/2000/svg"><sodipodi:namedview
     id="namedview1"
     pagecolor="#ffffff"
     bordercolor="#000000"
     borderopacity="0.25"
     inkscape:showpageshadow="2"
     inkscape:pageopacity="0.0"
     inkscape:pagecheckerboard="0"
     inkscape:deskcolor="#d1d1d1"
     inkscape:document-units="px"
     inkscape:zoom="4"
     inkscape:cx="38.25"
     inkscape:cy="53.625"
     inkscape:window-width="1920"
     inkscape:window-height="1019"
     inkscape:window-x="0"
     inkscape:window-y="0"
     inkscape:window-maximized="1"
     inkscape:current-layer="layer1"
     showguides="true"><inkscape:page
       x="0"
       y="0"
       width="16.933332"
       height="16.933332"
       id="page2"
       margin="0"
       bleed="0" /></sodipodi:namedview><defs
     id="defs1"><inkscape:path-effect
       effect="powerstroke"
       message=""
       id="path-effect6"
       is_visible="true"
       lpeversion="1.3"
       scale_width="1"
       interpolator_type="CentripetalCatmullRom"
       interpolator_beta="0.75"
       start_linecap_type="round"
       end_linecap_type="round"
       offset_points="786.5923,0.14044626 | 437.24629,0.2816711 | 793.14195,0.35079125"
       linejoin_type="spiro"
       miter_limit="4"
       not_jump="true"
       sort_points="true" /><inkscape:path-effect
       effect="simplify"
       id="path-effect5"
       is_visible="true"
       lpeversion="1.3"
       threshold="0.012"
       steps="1"
       smooth_angles="0"
       helper_size="0"
       simplify_individual_paths="false"
       simplify_just_coalesce="false"
       step="1" /><inkscape:path-effect
       effect="powerstroke"
       message=""
       id="path-effect4"
       is_visible="true"
       lpeversion="1.3"
       scale_width="1"
       interpolator_type="CentripetalCatmullRom"
       interpolator_beta="0.75"
       start_linecap_type="round"
       end_linecap_type="round"
       offset_points="18.903866,0.042518841"
       linejoin_type="spiro"
       miter_limit="4"
       not_jump="true"
       sort_points="true" /><inkscape:path-effect
       effect="simplify"
       id="path-effect3"
       is_visible="true"
       lpeversion="1.3"
       threshold="0.012"
       steps="1"
       smooth_angles="0"
       helper_size="0"
       simplify_individual_paths="false"
       simplify_just_coalesce="false"
       step="1" /><inkscape:path-effect
       effect="powerstroke"
       message=""
       id="path-effect2"
       is_visible="true"
       lpeversion="1.3"
       scale_width="1"
       interpolator_type="CentripetalCatmullRom"
       interpolator_beta="0.75"
       start_linecap_type="round"
       end_linecap_type="round"
       offset_points="72.386633,0.13006526 | 118.77173,0.35079125"
       linejoin_type="spiro"
       miter_limit="4"
       not_jump="true"
       sort_points="true" /><inkscape:path-effect
       effect="simplify"
       id="path-effect1"
       is_visible="true"
       lpeversion="1.3"
       threshold="0.012"
       steps="1"
       smooth_angles="0"
       helper_size="0"
       simplify_individual_paths="false"
       simplify_just_coalesce="false"
       step="1" /></defs><g
     inkscape:label="Layer 1"
     inkscape:groupmode="layer"
     id="layer1"
     transform="translate(-110.98384,-22.860394)"><path
       style="fill:#333333;fill-opacity:1;stroke-width:1"
       d="m 118.75987,39.526374 c -0.0439,-0.114262 -0.0389,-0.799488 0.0109,-1.522724 l 0.034,-0.485487 -0.69724,0.03756 -0.69727,0.03756 -0.0387,-0.655597 -0.0387,-0.655596 -0.35585,-0.152842 c -0.19573,-0.08407 -0.70447,-0.304905 -1.13054,-0.490758 l -0.77466,-0.337915 -0.21131,0.165291 c -0.11621,0.09092 -0.28975,0.239279 -0.38564,0.329707 -0.29446,0.277723 -0.53258,0.186349 -0.92458,-0.354774 -0.20684,-0.285554 -0.63075,-0.714676 -0.94198,-0.953607 -0.31125,-0.238929 -0.62867,-0.535286 -0.70539,-0.658573 l -0.13952,-0.224158 0.55456,-0.511947 0.55453,-0.511946 v -0.546333 c 0,-0.382826 0.0555,-0.546332 0.18573,-0.546332 0.24521,0 0.40593,-0.947065 0.21977,-1.294938 -0.0772,-0.144307 -0.34804,-0.330897 -0.6018,-0.414644 -0.31622,-0.104365 -0.46136,-0.232401 -0.46136,-0.406974 0,-0.321878 0.5405,-1.167948 0.7475,-1.170113 0.0855,-8.87e-4 0.37387,-0.267981 0.64062,-0.593523 0.55454,-0.676757 0.76993,-0.726513 1.13513,-0.262232 0.14262,0.181313 0.36269,0.384981 0.48901,0.452594 l 0.22971,0.122931 0.32601,-0.302281 c 0.32548,-0.301818 0.94586,-0.552459 1.55553,-0.628458 l 0.32259,-0.04021 0.007,-0.460361 0.007,-0.460362 0.78919,-0.136779 0.78918,-0.136778 -0.0448,-0.502424 c -0.0619,-0.693172 0.0799,-1.354411 0.30937,-1.442431 l 0.19162,-0.07354 -0.083,0.981558 -0.083,0.981557 h 0.20804 c 0.11442,0 0.35935,-0.05752 0.54429,-0.127841 0.51676,-0.196479 0.73312,-0.04436 0.73312,0.515398 v 0.490946 l 0.31712,0.144487 c 0.17441,0.07947 0.52954,0.18434 0.78919,0.23305 l 0.47208,0.08857 v 0.262498 c 0,0.155947 -0.0667,0.236897 -0.16442,0.199429 -0.0905,-0.03468 -0.50475,-0.139222 -0.92072,-0.232301 -0.42065,-0.09413 -0.7563,-0.24126 -0.7563,-0.331527 0,-0.08927 -0.0888,-0.196365 -0.1973,-0.238005 -0.10852,-0.04165 -0.19731,-0.225541 -0.19731,-0.408668 0,-0.246627 -0.0692,-0.332958 -0.26631,-0.332958 -0.35048,0 -0.4686,0.366732 -0.50836,1.578383 -0.0424,1.293437 -0.27758,1.552486 -0.27758,0.305812 0,-1.140255 -0.11176,-1.747948 -0.31046,-1.688191 -0.0824,0.0248 -0.31267,0.08075 -0.51162,0.124345 l -0.36171,0.07926 v 0.44175 c 0,0.558364 -0.18729,0.70681 -0.88777,0.703664 -0.6018,-0.0028 -1.61133,0.565053 -1.61133,0.906208 0,0.322668 -0.33172,0.18913 -0.8509,-0.342538 l -0.50965,-0.52195 -0.57121,0.587715 c -0.31416,0.323243 -0.62953,0.587715 -0.70081,0.587715 -0.0712,0 -0.1296,0.147972 -0.1296,0.328829 0,0.237319 0.0707,0.328831 0.25419,0.328831 0.13981,0 0.29081,0.11535 0.33556,0.256336 0.0449,0.140984 0.20212,0.294663 0.34972,0.341509 l 0.26837,0.08517 -0.0829,0.283266 c -0.0457,0.155797 -0.11622,0.464962 -0.15692,0.687033 l -0.0741,0.403767 0.90119,-0.09539 c 0.86517,-0.09158 2.49156,-0.165344 2.97284,-0.134839 0.1266,0.008 0.23018,0.07378 0.23018,0.146121 0,0.07435 -0.38601,0.133082 -0.88785,0.135097 -1.01445,0.0041 -3.31533,0.209816 -3.41048,0.304966 -0.0349,0.03494 0.007,0.194424 0.0921,0.3544 l 0.15566,0.290867 -0.60613,0.542473 c -0.33337,0.298361 -0.60578,0.586867 -0.60537,0.641122 8.1e-4,0.131912 1.5521,1.678234 1.6778,1.672657 0.16162,-0.0072 0.69055,-0.487738 0.69055,-0.627412 0,-0.07109 0.0816,-0.160561 0.18126,-0.198818 0.19933,-0.07649 0.4764,0.140705 0.4764,0.373452 0,0.151852 1.2792,0.793715 1.93474,0.970789 l 0.36706,0.09915 -0.0427,0.533029 -0.0427,0.53303 0.4838,0.05649 c 0.27458,0.03205 0.50335,-0.0039 0.52899,-0.08312 0.0481,-0.148526 0.17591,-2.30881 0.1851,-3.12782 l 0.007,-0.489117 0.20394,0.07825 0.20396,0.07825 -0.073,1.200046 c -0.0401,0.660024 -0.10748,1.422005 -0.14974,1.69329 l -0.0768,0.493245 h 0.20423 c 0.2369,0 0.47656,-0.390228 0.47656,-0.775917 0,-0.304022 0.40873,-0.566393 0.98316,-0.63111 0.21521,-0.02425 0.61656,-0.161504 0.8919,-0.305018 0.60117,-0.313347 1.15016,-0.343722 1.15016,-0.06364 0,0.380715 0.48651,0.191818 0.93161,-0.361712 l 0.44947,-0.559012 0.0161,-0.591894 c 0.009,-0.325541 0.11902,-0.901962 0.24483,-1.280934 0.12581,-0.378973 0.1944,-0.7785 0.15245,-0.88784 l -0.0764,-0.1988 h -1.04862 c -0.57675,0 -1.0852,-0.05919 -1.12991,-0.131532 -0.0798,-0.128885 0.60577,-0.183742 1.67703,-0.134219 l 0.49324,0.02281 v -0.280536 c 0,-0.154295 0.18335,-0.447998 0.40744,-0.652672 l 0.40745,-0.372136 -0.37456,-0.657795 c -0.34731,-0.609936 -1.14305,-1.608338 -1.28189,-1.608338 -0.0332,0 -0.14623,0.08586 -0.25118,0.190804 -0.1049,0.104945 -0.36072,0.22699 -0.56841,0.271216 l -0.3776,0.08042 0.5919,-0.533924 c 0.32553,-0.293659 0.65824,-0.534086 0.73935,-0.534281 0.0812,-1.97e-4 0.28827,0.206402 0.46037,0.459107 0.17208,0.252704 0.35167,0.459868 0.39905,0.460362 0.0474,4.95e-4 0.24941,0.282048 0.44897,0.625676 0.19956,0.343627 0.41753,0.661072 0.48438,0.705432 0.0669,0.04435 0.13119,0.280656 0.14293,0.525101 l 0.0214,0.444444 -0.29595,0.130865 c -0.17911,0.0792 -0.29593,0.246484 -0.29593,0.423744 v 0.292876 l 1.2502,0.03765 c 1.60607,0.04837 1.61538,0.299583 0.0114,0.303762 l -1.17185,0.0031 -0.10136,0.260012 c -0.0558,0.143005 -0.20313,0.602585 -0.32746,1.021286 l -0.22606,0.761276 0.17358,0.324338 0.17359,0.324338 -0.26706,0.295472 c -0.14687,0.162508 -0.56291,0.615628 -0.92455,1.006929 l -0.65751,0.71146 -0.46621,-0.355596 -0.4662,-0.355596 -0.44029,0.268422 c -0.24215,0.147632 -0.57345,0.268643 -0.73622,0.268912 -0.39743,6.62e-4 -0.82208,0.448017 -0.82208,0.866031 v 0.339412 l -0.52613,0.206669 c -0.28937,0.113668 -0.53241,0.271677 -0.54011,0.351131 -0.008,0.07945 -0.0272,0.233248 -0.0433,0.341762 -0.0161,0.108513 0.0171,-0.08469 0.006,0.584479 -0.0211,1.14016 -0.16942,1.540831 -0.37353,1.008921 z m 0.56217,-8.155977 c -0.093,-0.281661 -0.13296,-0.570463 -0.0889,-0.641784 0.13085,-0.211736 0.61037,-0.289265 0.61037,-0.09869 0,0.09331 0.11837,0.200599 0.26306,0.238435 0.33999,0.08891 0.34186,0.356485 0.002,0.356485 -0.16825,0 -0.28981,0.116516 -0.3431,0.32883 -0.11641,0.463848 -0.24838,0.409369 -0.44398,-0.18328 z"
       id="path44"
       sodipodi:nodetypes="cccccccsccccssscccsscssccccccsccccccscccscsccscscssssscscccscscccsssccccccscscccccccscsscccsscccccccssscsscscscscscsccsssccssssccccsscscccscccscccccsscccscccccsssscc" /></g></svg>
