<?xml version="1.0" encoding="UTF-8" standalone="no"?>
<!-- Created with Inkscape (http://www.inkscape.org/) -->

<svg
   width="16.933332mm"
   height="16.933334mm"
   viewBox="0 0 16.933332 16.933334"
   version="1.1"
   id="svg1"
   inkscape:version="1.4.3 (0d15f75042, 2025-12-25)"
   sodipodi:docname="geometric-tolerances.svg"
   xml:space="preserve"
   inkscape:export-filename="kompas.svg"
   inkscape:export-xdpi="96"
   inkscape:export-ydpi="96"
   xmlns:inkscape="http://www.inkscape.org/namespaces/inkscape"
   xmlns:sodipodi="http://sodipodi.sourceforge.net/DTD/sodipodi-0.dtd"
   xmlns="http://www.w3.org/2000/svg"
   xmlns:svg="http://www.w3.org/2000/svg"><sodipodi:namedview
     id="namedview1"
     pagecolor="#ffffff"
     bordercolor="#000000"
     borderopacity="0.25"
     inkscape:showpageshadow="2"
     inkscape:pageopacity="0.0"
     inkscape:pagecheckerboard="0"
     inkscape:deskcolor="#d1d1d1"
     inkscape:document-units="px"
     inkscape:zoom="4"
     inkscape:cx="84"
     inkscape:cy="25.125"
     inkscape:window-width="1920"
     inkscape:window-height="1019"
     inkscape:window-x="0"
     inkscape:window-y="0"
     inkscape:window-maximized="1"
     inkscape:current-layer="layer1"
     showguides="true"><inkscape:page
       x="0"
       y="-1.621449e-19"
       width="16.933332"
       height="16.933334"
       id="page2"
       margin="0"
       bleed="0" /></sodipodi:namedview><defs
     id="defs1" /><g
     inkscape:label="Layer 1"
     inkscape:groupmode="layer"
     id="layer1"
     transform="translate(-94.050501,-107.52707)"><path
       d="m 94.228959,118.87879 c -0.336331,-0.48276 0.03362,-1.24018 -0.0018,-1.82763 0.09522,-0.99554 0.24674,-1.99309 0.175573,-2.99549 0.169836,-0.70474 0.916819,-0.73893 1.502825,-0.71995 0.955837,-0.10515 1.731279,0.0315 2.674533,-0.18321 0.889718,-0.0957 1.78621,0.018 2.67502,-0.10266 0.87599,0.0205 1.75332,0.042 2.62667,-0.008 1.06406,0.0223 2.12661,-0.0998 3.19221,-0.063 1.41047,-0.0621 2.29443,-0.21514 3.69775,-0.008 0.33151,0.63912 0.1019,1.39467 0.0538,2.08327 -0.12499,0.86479 -0.13479,1.7489 0.0468,2.60446 -0.04,0.51892 0.24411,1.49576 -0.63293,1.31259 -2.18959,0.12135 -3.85399,0.2737 -6.03578,-0.0153 -1.18635,-0.10238 -2.37932,-0.0276 -3.56828,-0.0258 -1.44542,0.10157 -2.896417,0.0757 -4.343581,0.0516 -0.645566,0.026 -1.083805,-0.18646 -1.728297,-0.008 -0.112166,-0.002 -0.255257,0.003 -0.334487,-0.0961 z m 1.437728,-0.32006 c 1.047407,0.079 2.099005,0.0648 3.146955,0.0454 0.517432,0.0311 1.203908,0.089 1.097115,-0.63888 0.250623,-1.48655 0.264783,-3.02031 0.559353,-4.49016 -0.84665,-0.0287 -1.699067,-0.0615 -2.542705,0.0565 -1.010873,0.0817 -1.860436,-0.14341 -2.845225,0.14175 -0.389496,0.39515 -0.256479,1.15101 -0.369471,1.69398 -0.08106,1.00721 -0.129633,2.01717 -0.229572,3.02274 0.237992,0.27141 0.79301,0.0608 1.183546,0.16869 z m 1.644427,-0.85719 c 0.356555,-0.652 -0.927116,-0.14083 -1.005814,-0.83028 -0.113245,-0.39825 -0.322428,-0.58821 -0.493009,-0.10011 -0.08997,0.26646 -0.517671,1.1392 -0.723523,0.54302 0.349791,-0.68576 0.861822,-1.24419 1.231031,-1.91173 0.355445,-0.34054 0.513466,-1.18324 1.053809,-1.16274 0.310072,0.4275 -1.100647,1.18948 -0.23247,1.11468 0.596982,-0.3171 0.877671,0.43393 1.201521,0.59496 0.41723,-0.51569 0.619028,-1.1955 1.069144,-1.70052 0.699457,-0.24897 0.02266,0.68103 -0.156081,0.90885 -0.563545,0.77661 -0.915461,1.68471 -1.495571,2.44739 -0.09616,0.11585 -0.431823,0.47282 -0.44904,0.0965 z m 0.250284,-0.82119 c 0.66562,-0.53293 -0.01281,-1.43915 -0.721833,-0.9862 -0.726652,0.40821 0.07589,1.35035 0.721876,0.98623 z m 3.992022,1.64201 c 0.98679,-0.0206 1.97256,-0.0594 2.95561,0.0585 1.12219,0.0905 2.24414,0.20819 3.37071,0.15204 1.00448,7.6e-4 1.46505,-0.15645 2.46919,-0.16759 0.52976,-0.27515 0.0535,-1.24189 0.13201,-1.79825 -0.21639,-0.96622 0.16448,-1.91888 0.14763,-2.88286 0.0267,-0.77519 -0.57207,-0.48372 -1.10554,-0.58306 -1.1326,0.0468 -2.26687,0.003 -3.3977,0.0872 -0.97853,-0.004 -1.95489,0.0743 -2.93414,0.043 -0.83095,0.0653 -1.67194,-0.0652 -2.49694,0.0201 0.0221,0.57675 -0.0634,1.29267 -0.13802,1.92237 -0.12478,1.01695 -0.19726,2.03945 -0.24355,3.06256 0.33035,0.19379 0.85313,0.0492 1.24074,0.086 z m 0.9609,-0.60741 c -0.17308,-0.34294 0.48586,-1.52064 0.62617,-0.83036 -0.16434,0.207 -0.21232,1.18933 -0.62617,0.83036 z m -1.24588,-1.05636 c -0.26373,-0.56816 -0.0359,-1.50803 0.51648,-1.84192 0.31127,-0.68772 1.00732,0.19336 0.91528,0.66521 0.0704,0.65503 -0.50547,1.57853 -1.22412,1.40549 -0.0869,-0.0579 -0.14989,-0.14372 -0.20764,-0.22878 z m 0.62802,-0.14147 c 0.45338,-0.21978 0.7296,-1.23634 0.24812,-1.45816 -0.008,0.44212 -0.64463,0.21077 -0.56797,0.75421 -0.0806,0.32307 -0.24105,0.83247 0.31985,0.70395 z m 5.31069,0.67775 c -0.29701,-0.78478 0.9309,-0.0503 1.12035,-0.42212 0.39719,-0.29386 0.3868,-1.03537 -0.24926,-0.74647 -0.66253,0.0114 -0.19953,-1.21999 0.1976,-1.4501 0.33158,-0.0896 1.42272,-0.70443 1.14532,0.0448 -0.38673,0.10487 -1.41475,0.3696 -1.08416,0.87876 0.63799,-0.0944 0.77539,0.89999 0.47385,1.29232 -0.34243,0.5518 -1.00492,0.59544 -1.57851,0.43246 l -0.0253,-0.0297 z m -3.37377,-0.76845 c -0.29046,-0.47458 -0.0358,-1.26241 0.3331,-1.62926 0.31565,-0.0709 0.24317,-0.91354 0.85535,-0.61182 0.55024,0.30495 0.44681,1.05626 0.19797,1.5305 -0.24923,0.38894 -0.92137,1.33128 -1.38642,0.71058 z m 0.69122,-0.34701 c 0.31165,-0.36795 0.9821,-1.33222 0.24028,-1.50712 -0.23311,0.50036 -0.80091,0.90193 -0.71098,1.5827 0.1109,0.19191 0.38368,0.0737 0.4707,-0.0756 z m 1.32678,0.42306 c -0.49224,-0.42664 -0.38824,-1.22172 0.0307,-1.67045 0.47275,-0.16453 0.24857,0.50062 0.0297,0.67909 -0.34683,0.78291 0.5836,0.85038 0.9298,0.31314 0.48142,-0.23992 0.13313,-1.38716 -0.25124,-0.87259 -0.48853,0.56646 -0.38243,-0.88436 0.29126,-0.50611 0.56507,0.27461 0.66823,1.28482 0.1324,1.64599 -0.31048,0.2322 -0.75536,0.77663 -1.16263,0.41093 z"
       style="fill:#333333;fill-opacity:1;stroke-width:1"
       id="path12"
       sodipodi:nodetypes="cccccccccccccccccccccccccccsccccccccccssccccccccccccccccccccccccccccccccccccccccccccccccccccccccc" /></g></svg>
