<?xml version="1.0" encoding="UTF-8" standalone="no"?>
<!-- Created with Inkscape (http://www.inkscape.org/) -->

<svg
   width="16.933332mm"
   height="16.933334mm"
   viewBox="0 0 16.933332 16.933334"
   version="1.1"
   id="svg1"
   inkscape:version="1.4.3 (0d15f75042, 2025-12-25)"
   sodipodi:docname="handbook.svg"
   xml:space="preserve"
   inkscape:export-filename="kompas.svg"
   inkscape:export-xdpi="96"
   inkscape:export-ydpi="96"
   xmlns:inkscape="http://www.inkscape.org/namespaces/inkscape"
   xmlns:sodipodi="http://sodipodi.sourceforge.net/DTD/sodipodi-0.dtd"
   xmlns="http://www.w3.org/2000/svg"
   xmlns:svg="http://www.w3.org/2000/svg"><sodipodi:namedview
     id="namedview1"
     pagecolor="#ffffff"
     bordercolor="#000000"
     borderopacity="0.25"
     inkscape:showpageshadow="2"
     inkscape:pageopacity="0.0"
     inkscape:pagecheckerboard="0"
     inkscape:deskcolor="#d1d1d1"
     inkscape:document-units="px"
     inkscape:zoom="5.6568542"
     inkscape:cx="38.00699"
     inkscape:cy="32.6153"
     inkscape:window-width="1920"
     inkscape:window-height="1019"
     inkscape:window-x="0"
     inkscape:window-y="0"
     inkscape:window-maximized="1"
     inkscape:current-layer="layer1"
     showguides="true"><inkscape:page
       x="0"
       y="-1.1107582e-19"
       width="16.933332"
       height="16.933334"
       id="page2"
       margin="0"
       bleed="0" /></sodipodi:namedview><defs
     id="defs1" /><g
     inkscape:label="Layer 1"
     inkscape:groupmode="layer"
     id="layer1"
     transform="translate(-94.050501,-73.660399)"><path
       id="path7"
       style="fill:#333333;fill-opacity:1;stroke:none;stroke-width:1"
       d="m 101.62745,76.988244 c -0.24486,0.01244 -0.42074,0.398147 -0.67498,0.478476 -1.168324,0.369191 -2.374133,0.594429 -3.526838,1.019047 -0.404134,0.148881 -1.08266,0.160407 -1.106705,0.777982 -0.690277,0.06332 -1.548026,0.318916 -1.744431,1.197286 -0.0627,0.280443 -0.06952,0.936061 0.182624,1.110358 0.16648,0.115069 0.298611,-0.05903 0.327264,-0.237411 0.08497,-0.529037 0.0992,-1.584074 0.882442,-1.421552 0.384486,0.07973 0.946229,0.916655 1.320743,1.17172 1.097352,0.747363 2.239736,1.392116 3.319381,2.171774 0.34804,0.251338 1.04296,0.60031 1.24184,1.030002 0.0859,0.185676 -0.31708,0.658297 -0.36451,0.883173 -0.12624,0.598787 0.075,1.099567 0.15997,1.675764 -1.958488,-1.53883 -3.983418,-2.856037 -5.711027,-4.723404 -0.192291,-0.207856 -1.361187,-0.627351 -1.060684,0.08035 0.129204,0.304348 0.456582,0.294966 0.685939,0.425879 0.338783,0.193381 0.643514,0.535555 0.96791,0.769216 1.262014,0.909023 2.389157,2.052587 3.677322,2.94464 0.26994,0.18692 1.85377,1.464746 1.57861,0.662558 0.81012,0.04017 1.36147,-0.24781 2.14401,-0.382045 2.19614,-0.376698 4.56072,-1.248995 6.57011,-2.331022 -0.0622,-0.344085 -0.1784,-0.478524 -0.48433,-0.398853 -0.11637,-0.563477 -0.11673,-1.259461 -0.0599,-1.835743 0.028,-0.283667 0.24168,-0.65148 0.0716,-0.917507 -0.33466,-0.523484 -1.56797,-0.661317 -2.08629,-0.947457 -1.53123,-0.845362 -3.13995,-1.534528 -4.7015,-2.306185 -0.47463,-0.234545 -1.05635,-0.871395 -1.58445,-0.897052 -0.008,-3.97e-4 -0.0162,-4.02e-4 -0.0241,0 z m 0.19871,0.945266 c 0.12572,-0.0017 0.24952,0.0043 0.37109,0.01827 1.13137,0.130051 2.45057,1.177405 3.45818,1.756119 0.92547,0.531541 1.92922,0.793707 2.83507,1.39087 v 0.08035 c -1.34806,0.723355 -2.89621,1.222314 -4.28731,1.851084 -0.46202,0.208831 -1.1718,0.784924 -1.65969,0.74803 -1.0375,-0.07846 -2.07464,-1.223087 -2.973853,-1.748083 -0.685106,-0.399993 -1.284897,-0.944274 -1.936557,-1.40621 -0.382489,-0.271143 -1.106702,-1.120586 -1.106702,-1.120586 0.629067,-0.684141 1.816151,-0.759011 2.628334,-0.976678 0.825557,-0.221243 1.791358,-0.581512 2.671438,-0.593164 z m -0.23814,1.134463 c -0.38657,0.01357 -1.07443,0.452676 -1.43618,0.586592 -0.14621,0.05419 -0.365078,0.110471 -0.447784,0.281242 -0.255511,0.52751 0.630064,1.0858 0.978144,1.078216 0.45778,-0.01008 0.93659,-0.462388 1.37405,-0.61435 0.43858,-0.152369 0.93957,-0.142776 1.17247,-0.663293 -0.68652,-0.0063 -0.94925,-0.581995 -1.56693,-0.665484 -0.0229,-0.0031 -0.0479,-0.0037 -0.0737,-0.0029 z m -0.0523,0.385475 c 0.18126,-0.03563 0.48194,0.09283 0.92823,0.41516 -1.10974,0.179883 -1.29584,0.724121 -1.77318,0.707072 -0.11567,-0.0041 -0.61627,-0.323123 -0.6204,-0.422298 -0.003,-0.08947 0.15649,-0.130009 0.43315,-0.26003 0.37158,-0.17464 0.7051,-0.375625 1.0322,-0.439904 z m 7.42526,2.062428 c 0.10003,6.14e-4 0.18612,0.02121 0.25129,0.06793 0.46929,0.33655 0.25561,1.920162 0.31558,2.468357 -0.94437,0.447052 -1.8565,0.938397 -2.83507,1.285677 -0.61569,0.2185 -1.24856,0.346671 -1.86715,0.546413 -0.658,0.212466 -1.81383,0.593486 -2.48881,0.469712 -0.75302,-0.13811 -0.34633,-1.28766 0,-1.648737 0.56306,-0.587026 1.32099,-0.837765 2.00449,-1.165876 0.93877,-0.450656 1.80268,-0.94198 2.76639,-1.314167 0.3561,-0.137516 1.31259,-0.712633 1.85328,-0.709315 z m -1.00225,0.80574 c -0.37849,-0.0059 -0.79089,0.271874 -1.12788,0.395929 -0.83401,0.306978 -1.60834,0.752514 -2.42015,1.12716 -0.53734,0.247975 -1.13632,0.4227 -1.59103,0.845919 v 0.07962 c 0.50787,0.285562 0.91363,-0.271238 1.38357,-0.458752 1.37867,-0.550118 2.58441,-1.494812 4.01118,-1.935092 -0.0824,-0.03705 -0.16834,-0.0534 -0.25569,-0.05478 z m 0.46314,0.932115 c -1.33544,0.09797 -2.89218,1.01548 -4.14996,1.545736 -0.4646,0.195869 -1.1277,0.406208 -1.38283,0.928465 l 1.72908,-0.633343 2.55821,-1.09794 z"
       sodipodi:nodetypes="ssscssscsssccscssscsccsscsssscsccsssscssscscscssscscsssscsssssssscsccscscsccccccc" /></g></svg>
