<?xml version="1.0" encoding="UTF-8" standalone="no"?>
<!-- Created with Inkscape (http://www.inkscape.org/) -->

<svg
   width="16.933332mm"
   height="16.933332mm"
   viewBox="0 0 16.933332 16.933332"
   version="1.1"
   id="svg1"
   inkscape:version="1.4.3 (0d15f75042, 2025-12-25)"
   sodipodi:docname="kompas.svg"
   xml:space="preserve"
   xmlns:inkscape="http://www.inkscape.org/namespaces/inkscape"
   xmlns:sodipodi="http://sodipodi.sourceforge.net/DTD/sodipodi-0.dtd"
   xmlns="http://www.w3.org/2000/svg"
   xmlns:svg="http://www.w3.org/2000/svg"><sodipodi:namedview
     id="namedview1"
     pagecolor="#ffffff"
     bordercolor="#000000"
     borderopacity="0.25"
     inkscape:showpageshadow="2"
     inkscape:pageopacity="0.0"
     inkscape:pagecheckerboard="0"
     inkscape:deskcolor="#d1d1d1"
     inkscape:document-units="px"
     inkscape:zoom="1"
     inkscape:cx="282"
     inkscape:cy="302.5"
     inkscape:window-width="1920"
     inkscape:window-height="1019"
     inkscape:window-x="0"
     inkscape:window-y="0"
     inkscape:window-maximized="1"
     inkscape:current-layer="layer1"><inkscape:page
       x="0"
       y="0"
       width="16.933332"
       height="16.933332"
       id="page2"
       margin="0"
       bleed="0" /></sodipodi:namedview><defs
     id="defs1" /><g
     inkscape:label="Layer 1"
     inkscape:groupmode="layer"
     id="layer1"
     transform="translate(-94.050501,-5.9270593)"><path
       d="m 95.262573,20.85079 c 0.05981,1.190999 1.517245,0.6224 2.280425,0.714437 1.292879,0.155917 1.79745,-0.460339 3.080142,-0.07373 1.79846,0.442157 3.57772,-0.457982 5.38797,-0.268318 1.10525,0.04693 1.56092,0.230744 2.65005,-0.04323 0.75611,-0.39587 0.53138,-1.386234 0.61723,-2.089756 0.20003,-0.812208 0.11477,-1.56799 0.16594,-2.373657 -0.0974,-1.601721 -0.0112,-3.215231 0.32857,-4.78556 0.13961,-0.996189 -0.0148,-2.0030275 0.0559,-3.0038317 0.0824,-0.871272 -0.39296,-1.9145836 -1.47708,-1.6713491 -1.84967,0.4149916 -3.08692,0.059807 -4.96673,0.017046 -0.99476,-0.022627 -1.97036,0.01556 -2.97265,-0.079002 -1.252511,-0.1181752 -1.768565,0.1748644 -3.02844,0.1056334 -0.891924,-0.19493 -1.298325,0.5611981 -1.252747,1.3419615 -0.0824,0.7499756 -0.119455,1.5041139 -0.193063,3.5423999 -0.07361,2.038287 -0.05318,5.388658 -0.675487,8.66696 z m 0.716288,-0.122429 c 0.502189,-2.050394 0.158922,-4.178135 0.361728,-6.260708 0.134364,-2.159313 0.391362,-4.309998 0.477177,-6.4724933 1.47403,0.00862 2.222407,-0.3581969 3.676874,-0.098083 0.90975,0.1627004 1.75932,-0.1535526 2.6523,-0.00513 1.04149,0.1731052 2.09278,0.2675706 3.15474,0.2132539 1.04874,-0.05364 1.45783,-0.2576345 2.47571,-0.00968 0.91173,0.2220959 0.42014,1.5784967 0.48619,2.3206864 0.0862,1.800973 -0.57673,3.54094 -0.48725,5.344888 -0.0133,1.330484 0.0217,2.66595 -0.0912,3.992164 0.0508,1.11824 -0.48977,0.821652 -1.20798,0.831751 -1.18544,-0.113495 -2.3837,-0.125313 -3.55323,0.127765 -1.29042,0.27484 -2.61767,0.306458 -3.92344,0.125918 -1.106371,-0.157302 -1.475765,-0.09757 -2.583539,0.01777 -0.479431,0.04991 -1.002231,0.08983 -1.438081,-0.128094 z m 2.288499,-8.265412 c -0.555908,1.821173 -0.752176,3.802445 -0.243144,5.659203 0.252687,1.048413 1.139458,1.969971 2.255804,2.01536 1.14209,0.107132 2.194,-0.43562 3.1651,-0.960091 0.58996,-0.143758 1.24998,-0.747071 0.73462,-1.353116 -0.57829,-0.650373 -0.69866,-1.507279 -0.9939,-2.290237 -0.56663,-1.059255 -1.56341,0.114034 -1.99202,0.631637 -0.44389,0.473783 -0.87247,0.86996 -1.298689,1.12687 0.328869,-1.762707 0.435299,-3.310328 0.513989,-5.094977 -0.10129,-0.765042 1.27353,-1.228076 1.14424,-0.284833 0.0415,0.540028 -0.51642,1.645468 0.29234,1.72979 0.56832,-0.544845 1.07205,-1.191896 1.72987,-1.6566 0.40695,-0.524392 1.70834,-0.301857 1.81422,-0.07478 -0.38574,0.695833 -1.5285,1.24522 -1.55817,1.961238 0.45626,0.810931 1.00735,1.485988 1.37111,2.393672 0.3077,0.767855 1.24277,0.244206 1.45862,-0.432186 0.30648,-0.584196 0.61023,-1.129371 0.85667,-1.647177 0.34759,-1.069874 -0.13449,-2.196527 -0.54439,-3.180239 -0.42386,-0.964189 -1.27803,-1.8461281 -2.39375,-1.8642667 -2.11192,-0.2840811 -4.31314,0.6366031 -5.656901,2.2721277 -0.241419,0.334494 -0.455118,0.688342 -0.655588,1.048598 z m 8.06662,-1.265807 c -0.49208,-7.19e-4 -0.99498,0.100224 -1.48003,0.03355 -0.3113,-0.05977 -0.64178,-0.219134 -0.9412,-0.217153 l -1.83787,1.374976 c 0.043,-0.421957 0.0862,-0.843916 0.12914,-1.265874 -0.28857,-0.527535 -1.48579,-0.05787 -1.38136,-0.542503 0.52766,-0.525321 1.3446,-0.554361 2.03395,-0.7079347 1.12657,-0.127965 2.55326,-0.1217842 3.28199,0.8995807 0.085,0.131502 0.15012,0.275537 0.19545,0.425319 m -6.453142,0.223437 c 10e-4,2.088979 -0.168186,4.180253 -0.573037,6.23083 -0.313079,0.777659 0.519058,1.279792 0.905879,0.437667 0.68499,-0.824255 1.32128,-1.826425 2.3775,-2.200693 0.24112,0.752555 0.63974,1.444267 0.91794,2.179216 -0.15354,0.762997 -1.23342,0.948157 -1.87463,1.236383 -0.86,0.227805 -1.769418,-0.01319 -2.528046,-0.437464 -0.427732,-0.619004 -0.628653,-1.342365 -0.717509,-2.072452 0.0075,-1.687972 0.01319,-3.506841 0.965869,-4.975427 0.128781,-0.181416 0.302297,-0.347285 0.52599,-0.398442 m 6.840376,0.372335 c 0.573,1.034023 0.39224,2.310977 -0.20481,3.290872 -0.12517,0.628296 -0.7903,0.998733 -1.11771,0.288593 -0.36995,-0.450244 -0.49617,-1.014382 -0.97633,-1.392025 0.18117,-0.607606 0.76031,-1.101982 1.24392,-1.529327 0.32338,-0.2594 0.66603,-0.506718 1.05493,-0.658113 z"
       style="fill:#333333;fill-opacity:1;stroke:none;stroke-width:1"
       id="path3"
       sodipodi:nodetypes="cscccccccsssccccccsssscccccccssccccccccccccccsccccccccccccccccccccccccccccccccc" /></g></svg>
