<?xml version="1.0" encoding="UTF-8" standalone="no"?>
<!-- Created with Inkscape (http://www.inkscape.org/) -->

<svg
   width="16.933332mm"
   height="16.933338mm"
   viewBox="0 0 16.933332 16.933338"
   version="1.1"
   id="svg1"
   inkscape:version="1.4.3 (0d15f75042, 2025-12-25)"
   sodipodi:docname="kompas-macros.svg"
   xml:space="preserve"
   inkscape:export-filename="kompas.svg"
   inkscape:export-xdpi="96"
   inkscape:export-ydpi="96"
   xmlns:inkscape="http://www.inkscape.org/namespaces/inkscape"
   xmlns:sodipodi="http://sodipodi.sourceforge.net/DTD/sodipodi-0.dtd"
   xmlns="http://www.w3.org/2000/svg"
   xmlns:svg="http://www.w3.org/2000/svg"><sodipodi:namedview
     id="namedview1"
     pagecolor="#ffffff"
     bordercolor="#000000"
     borderopacity="0.25"
     inkscape:showpageshadow="2"
     inkscape:pageopacity="0.0"
     inkscape:pagecheckerboard="0"
     inkscape:deskcolor="#d1d1d1"
     inkscape:document-units="px"
     inkscape:zoom="5.6568542"
     inkscape:cx="62.932504"
     inkscape:cy="40.570252"
     inkscape:window-width="1920"
     inkscape:window-height="1019"
     inkscape:window-x="0"
     inkscape:window-y="0"
     inkscape:window-maximized="1"
     inkscape:current-layer="layer1"
     showguides="true"><inkscape:page
       x="0"
       y="0"
       width="16.933332"
       height="16.933338"
       id="page2"
       margin="0"
       bleed="0" /></sodipodi:namedview><defs
     id="defs1" /><g
     inkscape:label="Layer 1"
     inkscape:groupmode="layer"
     id="layer1"
     transform="translate(-110.98384,-56.727056)"><path
       id="path6"
       style="fill:#333333;fill-opacity:1;stroke:none;stroke-width:1"
       d="m 126.19345,57.885066 c -0.28718,0.0076 -0.59635,0.05294 -0.79402,0.06771 -2.06331,0.154177 -4.10585,0.57925 -6.175,0.614149 -1.09463,0.01846 -2.18039,0.0676 -3.27181,0.0896 -0.85798,0.0173 -2.08331,-0.06174 -2.90531,0.213537 -0.54875,0.798833 0.89607,0.304419 1.28437,0.255097 1.50688,-0.191403 3.36815,-0.05627 4.88454,-0.09796 1.63121,-0.04485 3.23639,-0.351386 4.86463,-0.442489 0.68801,-0.0385 1.37322,-0.117653 2.05651,-0.207907 0.14454,2.904611 -0.17176,5.344396 -0.79333,8.176796 -0.15207,0.69296 -0.19028,1.956478 -0.18465,2.654245 0.007,0.8303 -0.0257,1.545174 -0.0232,2.357427 -0.77477,-0.127103 -1.52963,0.03492 -2.30819,0.0978 -0.82919,0.06697 -1.61967,0.163137 -2.42993,0.232529 -1.12898,0.09669 -2.2484,0.09893 -3.37713,-0.07796 -0.70128,-0.109898 -1.40383,-0.01959 -2.13585,0.01915 -0.62783,0.03322 -1.21517,-0.161031 -1.79114,-0.235947 -0.88542,-0.115166 -0.60713,-1.348539 -0.48284,-1.932722 0.0442,-0.208034 0.0401,-0.513815 0.0506,-0.758454 0.0417,-0.977179 0.0303,-1.952978 -0.0417,-2.930543 -0.0647,-0.878422 -0.13499,-1.754865 -0.0567,-2.639881 l 0.33469,-3.786602 c -0.60426,-0.349117 -0.45631,0.23517 -0.4712,0.706478 -0.0402,1.271717 -0.3047,2.849519 -0.37232,4.117611 -0.0116,0.219152 0.0271,0.392594 0.0541,0.527291 0.17231,0.860473 0.0757,1.698214 0.1703,2.570809 0.10453,0.963408 0.0535,1.945486 -0.21953,2.87583 -0.28413,0.968019 0.31907,1.949955 1.34798,1.959394 1.30676,0.239529 2.63196,-0.123861 3.94614,0.07317 1.3975,0.209529 2.81317,0.123159 4.21013,-0.09096 1.04498,-0.160168 2.12527,-0.544389 3.16717,-0.217482 0.38471,0.120711 1.7442,0.08664 1.20983,-0.474631 -0.42931,-0.01929 -0.28449,-0.476946 -0.30707,-0.770081 -0.0679,-0.881472 -0.16132,-1.771679 -0.10741,-2.652192 0.0408,-0.665374 0.0825,-1.33948 0.25784,-1.982647 0.16115,-0.591302 0.2988,-1.220047 0.36315,-1.836291 0.13431,-1.28596 0.3831,-2.572857 0.36432,-3.868864 -0.01,-0.662426 -0.0275,-1.335525 0.32302,-1.910837 0.256,-0.602577 -0.16221,-0.70696 -0.64083,-0.694167 z m -4.94842,7.902265 c 0.23387,-0.22343 0.67962,-0.404798 0.83061,-0.771162 0.32525,-0.828315 0.5635,-1.886571 0.0404,-2.681601 -0.33688,-0.360903 -0.91482,-0.07129 -0.66885,-0.720839 0.46011,-0.712619 -0.46858,-1.194517 -0.98962,-0.592946 -0.15274,-0.289323 -0.48896,-1.200869 -1.07373,-1.221459 v 0 c -0.13496,-0.0048 -0.28303,0.0376 -0.44524,0.146355 -0.43902,0.252103 -0.70034,0.728126 -0.84188,1.19889 v 6.84e-4 c -0.86961,-0.559453 -1.70848,0.381988 -1.61129,1.248814 0.34713,0.676621 -0.10266,1.403855 0.21817,2.067452 0.3291,0.840159 1.3706,1.13343 2.09822,1.211201 -0.0409,0.283694 -0.17742,1.343466 -0.21838,1.62716 -0.27989,-0.583771 -0.93807,-0.759707 -1.44988,-0.799691 -0.59174,-0.04623 -1.20526,-1.709528 -1.39222,-0.586738 -0.16481,0.813534 -0.0476,2.058329 1.02859,2.09002 0.57492,0.01296 1.08922,0.393796 1.27002,0.926695 l 0.38026,1.85202 c 0.87866,0.27218 0.58854,-0.886023 0.78102,-1.173585 1.00384,-0.153011 1.84366,-0.662301 2.39299,-1.440308 0.48206,-0.592723 0.37649,-1.603378 -0.54758,-1.787529 -0.25149,-0.05012 -0.76911,1.000259 -0.96986,1.2474 -0.3074,0.378454 -0.97085,0.885562 -1.07516,0.806594 -0.091,-0.08937 -0.0149,-1.13085 0.0772,-1.500922 0.0932,-0.374458 0.0819,-0.857296 0.44181,-1.082625 0.11489,0.05395 0.22125,0.136398 0.33984,0.196935 0.35027,0.178782 1.09048,0.02019 1.38462,-0.260819 z m -2.00693,-5.317779 c 0.43484,-0.0013 0.81514,0.616611 0.4213,1.153068 -0.47172,0.270341 -1.27348,-0.04681 -0.98073,-0.701689 0.15279,-0.322244 0.36179,-0.450795 0.55943,-0.451379 z m -1.62428,1.112034 c 0.6318,0.203427 0.27629,0.899603 0.3529,1.356188 -0.90044,0.520493 -1.26151,-1.32056 -0.3529,-1.356188 z m 3.33132,0.08617 c -0.0229,0.673395 -1.12132,0.293753 -0.34401,0.119004 0.11458,-0.03967 0.22942,-0.07933 0.34401,-0.119004 z m -2.07224,0.597735 c 0.40509,0.701751 1.90616,-0.03456 1.76722,1.099724 -0.57304,0.411212 -1.57234,0.515419 -2.07429,-0.06771 -0.24215,-0.336298 -0.16136,-0.950824 0.30707,-1.032016 z m 2.55303,0.506091 c 0.0215,6.3e-5 0.0457,0.0025 0.0732,0.0075 0.53551,0.064 0.43197,0.819227 -0.10122,0.7564 0.0289,-0.236322 -0.29365,-0.764843 0.028,-0.763925 z m -3.21369,0.98004 c 0.0989,0.0049 0.19521,0.03472 0.28725,0.110108 l 0.76187,0.346057 c -0.13631,0.951717 -1.31593,0.90129 -1.78569,0.232528 -0.5009,-0.372306 -0.26246,-0.558144 0.23048,-0.592947 0.16972,-0.04131 0.3412,-0.103847 0.50609,-0.09575 z m 2.59543,0.36931 c 0.27761,-0.0011 0.47125,0.173266 0.6586,0.349474 0.55523,0.39616 -0.90235,1.701615 -1.50049,1.078521 -0.69289,-0.612204 0.14462,-1.431733 0.84189,-1.427999 z m -4.3305,2.477112 c 0.56767,0.559522 1.84503,0.245194 1.94298,1.270016 -0.6241,-0.466101 -1.59474,-0.193349 -2.07702,-0.800172 -0.0569,-0.167049 0.0224,-0.345986 0.13404,-0.469844 z m 4.59723,0.298868 c 0.66561,0.454516 -0.0646,1.518569 -0.66477,1.726866 -0.30631,0.107398 -0.63436,0.110758 -0.95405,0.140884 0.56451,-0.522992 1.13675,-1.015027 1.61882,-1.86775 z"
       sodipodi:nodetypes="sssscssscsscssssssssscssssscssscssssscssccccssccccccccsccccccsscscssccccccccccccscccsccccssccccccccccccccccc" /></g></svg>
