<?xml version="1.0" encoding="UTF-8" standalone="no"?>
<!-- Created with Inkscape (http://www.inkscape.org/) -->

<svg
   width="16.933332mm"
   height="16.933342mm"
   viewBox="0 0 16.933332 16.933342"
   version="1.1"
   id="svg1"
   inkscape:version="1.4.3 (0d15f75042, 2025-12-25)"
   sodipodi:docname="siemens-nx-old.svg"
   xml:space="preserve"
   inkscape:export-filename="kompas.svg"
   inkscape:export-xdpi="96"
   inkscape:export-ydpi="96"
   xmlns:inkscape="http://www.inkscape.org/namespaces/inkscape"
   xmlns:sodipodi="http://sodipodi.sourceforge.net/DTD/sodipodi-0.dtd"
   xmlns="http://www.w3.org/2000/svg"
   xmlns:svg="http://www.w3.org/2000/svg"><sodipodi:namedview
     id="namedview1"
     pagecolor="#ffffff"
     bordercolor="#000000"
     borderopacity="0.25"
     inkscape:showpageshadow="2"
     inkscape:pageopacity="0.0"
     inkscape:pagecheckerboard="0"
     inkscape:deskcolor="#d1d1d1"
     inkscape:document-units="px"
     inkscape:zoom="5.6568542"
     inkscape:cx="57.80598"
     inkscape:cy="36.327611"
     inkscape:window-width="1920"
     inkscape:window-height="1019"
     inkscape:window-x="0"
     inkscape:window-y="0"
     inkscape:window-maximized="1"
     inkscape:current-layer="layer1"
     showguides="true"><inkscape:page
       x="0"
       y="0"
       width="16.933332"
       height="16.933342"
       id="page2"
       margin="0"
       bleed="0" /></sodipodi:namedview><defs
     id="defs1" /><g
     inkscape:label="Layer 1"
     inkscape:groupmode="layer"
     id="layer1"
     transform="translate(-110.98384,-124.46041)"><path
       d="m 117.4622,139.38702 c -0.87205,-0.18558 -1.62062,-0.67893 -2.40581,-1.09538 -0.97809,-0.51878 -1.11514,-1.62378 -2.07343,-2.23492 -0.33706,-0.21494 -0.42059,-0.37411 -0.63575,-0.59098 -0.57005,-0.57458 -0.035,-1.05436 0.74552,-1.16622 0.0624,-0.50525 0.10954,-1.03164 0.27178,-1.63349 0.20305,-0.75329 0.15335,-0.9004 0.50679,-1.57907 0.13312,-0.25558 0.4883,-0.97678 0.71895,-1.1557 0.49022,-0.38027 1.00626,-0.90708 1.59647,-1.2271 0.57555,-0.35671 -0.23094,-0.95201 0.0614,-1.51398 0.41383,-0.79555 1.33973,-0.58023 2.02222,-0.59366 0.60054,0.16591 1.2456,0.0909 1.7843,-0.16226 0.39824,0.43968 -0.0595,1.44706 0.0459,2.02585 0.42252,-0.002 0.78963,-0.10163 1.27395,-0.12047 0.62255,-0.0242 1.22559,-0.19991 1.83847,-0.23 0.7159,-0.10918 1.28275,0.2145 1.89932,0.44316 0.61208,0.22701 1.13972,0.69898 1.4519,1.31106 0.29595,0.58023 0.32726,1.40856 -0.0482,1.96828 -0.41509,0.6188 -0.8932,1.17851 -1.47891,1.62483 -0.58919,0.44895 -0.61647,1.20671 -0.89466,1.83396 -0.26427,0.78477 -0.50784,1.69559 -1.29584,2.11819 -0.45675,0.43786 -0.98886,0.78326 -1.54592,1.07194 -0.64064,0.37927 -1.42931,0.59762 -2.1748,0.79767 -0.54442,0.064 -1.11883,0.20482 -1.66369,0.10836 z m 1.61643,-0.79263 c 0.62478,-0.25185 1.21072,-0.37447 1.79461,-0.70173 0.81719,-0.45479 1.67855,-0.89442 2.28466,-1.62765 0.30331,-0.62685 0.60379,-1.2832 0.71626,-1.972 -0.70374,-0.0619 -1.01311,0.23797 -1.71932,0.46084 -0.63246,0.19962 -1.43049,0.56901 -2.04884,0.75353 -0.61058,0.18219 -1.22866,0.3216 -1.89112,0.42125 -0.65143,0.098 -1.23624,0.14135 -1.90226,0.11697 -0.45377,-0.0166 -0.0702,1.02847 -0.79926,0.84596 -0.25595,-0.0641 -0.82761,-0.10305 -0.96414,-0.085 0.0118,0.22817 0.32825,0.60457 0.73666,0.85807 0.56234,0.34904 1.02892,0.744 1.63947,0.83329 0.69768,0.22889 1.4369,0.0868 2.15328,0.0966 z m -1.58724,-3.21591 c 0.63309,-0.001 1.02495,-0.13275 1.7431,-0.28142 0.6548,-0.13543 1.29614,-0.37416 1.91011,-0.65684 0.60085,-0.27662 1.18202,-0.48457 1.79816,-0.70355 0.66131,-0.23504 1.19674,-0.50182 1.11364,-1.30826 -0.0703,-0.6827 -0.0398,-1.41304 -0.49748,-1.94631 -0.39841,-0.46422 -0.58718,-1.30066 -1.28748,-1.36346 -0.73054,-0.0655 -1.47513,-0.0555 -2.20282,0.0353 -0.0582,0.83866 -0.0209,1.73175 0.028,2.52894 0.0328,0.53455 -0.11048,0.43329 -0.38078,0.68758 -0.31447,0.47894 -1.15287,-0.19984 -1.30109,-0.62892 -0.39143,-0.50638 -0.67733,-0.97826 -1.06667,-1.45417 -0.24632,-0.30107 -0.58998,-0.95526 -0.71693,-1.19649 -0.53061,0.37828 -1.35383,1.07108 -1.74396,1.55302 -0.43785,0.5409 -0.78135,1.2105 -0.88446,1.88623 -0.077,0.50481 -0.30957,1.03407 -0.27223,1.63119 0.57788,-0.20968 1.22433,-0.23636 1.84924,-0.34614 0.70084,-0.26396 0.73415,1.09787 0.62892,1.47856 0.40672,0.14842 0.80209,0.13261 1.28279,0.0847 z m 7.84551,-3.09112 c 0.43411,-0.50058 0.90167,-1.12814 0.60775,-1.87731 -0.29246,-0.74547 -1.02176,-1.09783 -1.59921,-1.31906 -0.4755,-0.1822 -1.13685,-0.2565 -0.62029,0.40469 0.40938,0.52397 0.7365,1.1255 0.86111,1.79325 0.0898,0.48108 -0.13226,1.38432 0.17878,1.60431 0.20454,-0.18818 0.38996,-0.39613 0.57186,-0.60588 z m -5.8606,-1.60534 c 0.0968,-0.69146 -0.13244,-1.37243 -0.37041,-1.93083 0.46933,-0.2815 0.22438,-0.90284 0.18525,-1.30075 -0.77299,0.009 -1.4843,0.0156 -2.2473,0.0884 -0.14451,0.52906 0.29563,1.53938 0.54447,2.02701 0.37147,0.55958 0.69283,1.18057 1.16253,1.64389 0.27021,0.24399 0.8348,1.12367 0.72322,0.25129 0.005,-0.2596 0.005,-0.51975 0.002,-0.77905 z"
       style="fill:#333333;fill-opacity:1;stroke-width:1"
       id="path13"
       sodipodi:nodetypes="sssscssscscccscssssccccssscccssssscscssssssssscsccscsscccssssssscssccccccss" /></g></svg>
