<?xml version="1.0" encoding="UTF-8" standalone="no"?>
<!-- Created with Inkscape (http://www.inkscape.org/) -->

<svg
   width="16.933332mm"
   height="16.933334mm"
   viewBox="0 0 16.933332 16.933334"
   version="1.1"
   id="svg1"
   inkscape:version="1.4.3 (0d15f75042, 2025-12-25)"
   sodipodi:docname="size-tolerances.svg"
   xml:space="preserve"
   inkscape:export-filename="kompas.svg"
   inkscape:export-xdpi="96"
   inkscape:export-ydpi="96"
   xmlns:inkscape="http://www.inkscape.org/namespaces/inkscape"
   xmlns:sodipodi="http://sodipodi.sourceforge.net/DTD/sodipodi-0.dtd"
   xmlns="http://www.w3.org/2000/svg"
   xmlns:svg="http://www.w3.org/2000/svg"><sodipodi:namedview
     id="namedview1"
     pagecolor="#ffffff"
     bordercolor="#000000"
     borderopacity="0.25"
     inkscape:showpageshadow="2"
     inkscape:pageopacity="0.0"
     inkscape:pagecheckerboard="0"
     inkscape:deskcolor="#d1d1d1"
     inkscape:document-units="px"
     inkscape:zoom="4"
     inkscape:cx="38.75"
     inkscape:cy="39.125"
     inkscape:window-width="1920"
     inkscape:window-height="1019"
     inkscape:window-x="0"
     inkscape:window-y="0"
     inkscape:window-maximized="1"
     inkscape:current-layer="layer1"
     showguides="true"><inkscape:page
       x="0"
       y="-1.3661035e-19"
       width="16.933332"
       height="16.933334"
       id="page2"
       margin="0"
       bleed="0" /></sodipodi:namedview><defs
     id="defs1" /><g
     inkscape:label="Layer 1"
     inkscape:groupmode="layer"
     id="layer1"
     transform="translate(-110.98384,-90.593735)"><path
       d="m 124.73242,103.08071 c -0.52231,-0.50691 0.30773,-1.24685 0.0276,-1.6889 -0.53502,-0.29057 -0.24052,-1.09815 0.0627,-1.473059 0.34614,-0.343 0.96773,-0.595035 1.40629,-0.31652 0.53205,0.578339 -0.008,1.231739 -0.40688,1.679829 0.40163,0.45896 0.72528,1.14639 0.0407,1.54638 -0.25357,0.16145 -0.90073,0.67651 -1.13031,0.25227 z m 0.77829,-0.63495 c 0.67691,-0.2646 -0.27049,-1.08181 -0.36627,-0.28541 -0.29092,0.39911 0.0225,0.57097 0.36627,0.28541 z m 0.19767,-1.80265 c 0.3348,-0.2392 0.31856,-0.740419 -0.19561,-0.52837 -0.6207,-0.008 -0.59392,1.45492 0.19561,0.52837 z m -3.41336,2.31127 c -0.69669,-0.32897 -0.94732,-1.24592 -0.75799,-1.94663 0.26715,-0.51893 1.01628,-0.97028 1.58692,-0.80624 0.67498,0.53749 -0.0449,1.18997 -0.54902,1.48535 -0.54593,0.22711 -0.39251,0.86719 0.20353,0.63115 0.46224,-0.0542 1.02314,-0.8887 1.3613,-0.58437 -0.31124,0.61115 -0.9543,1.04089 -1.60232,1.23076 -0.0806,0.0116 -0.16294,0.006 -0.24242,-0.0101 z m 0.53403,-2.12756 c -0.33682,-0.31194 -1.2465,0.45688 -0.72238,0.60254 0.25075,-0.18196 0.54381,-0.34503 0.72238,-0.60254 z m -11.29959,-0.2783 c -0.0555,-0.48228 0.7139,-1.061219 0.0534,-1.511514 -0.29098,-0.52149 0.16251,-1.14045 0.48061,-1.56142 0.29363,-0.53954 0.7988,-0.62255 1.28807,-0.28116 0.31045,-0.18817 0.89668,-1.31408 1.01338,-0.46529 -0.18509,0.355 -0.967,0.85461 -0.25041,1.06772 0.48615,0.42533 0.21768,1.22823 -0.21047,1.58063 -0.45476,0.477015 -1.37819,0.02841 -1.64595,0.628894 -0.18151,0.17967 -0.41641,0.87334 -0.72863,0.54214 z m 1.84249,-1.682464 c 0.75918,-0.0821 -0.11189,-1.09088 -0.23766,-0.32157 -0.23365,0.1972 -0.31095,0.66403 0.1169,0.38233 l 0.1206,-0.0608 z m -0.90731,-0.15261 c 0.11863,-0.25555 0.66666,-1.05341 0.22561,-1.0929 -0.28956,0.20486 -0.92698,0.66229 -0.684,1.20164 0.12272,0.22388 0.38461,0.0662 0.45839,-0.10874 z m 2.39449,1.813974 c -0.69486,-0.17136 -0.10878,-1.153324 0.34355,-0.666769 0.25006,0.491479 1.19667,-0.513185 0.80798,-0.942705 -0.1381,-0.53125 -0.61221,-0.35337 -0.94342,-0.29002 -0.41349,-0.5052 -0.04,-1.28415 0.18079,-1.81623 0.47719,-0.31089 1.15211,-0.40647 1.70834,-0.60301 0.75609,0.39334 -0.44304,0.77861 -0.81787,0.92207 -0.54441,0.083 -0.92562,0.73805 -0.1918,0.84689 0.47216,0.35923 0.69162,0.99837 0.5832,1.571725 -0.20229,0.475169 -0.71049,1.002569 -1.25169,1.030509 -0.14023,-0.0112 -0.28138,-0.0223 -0.41909,-0.0524 z m 2.92434,-0.32944 c -0.58068,-0.280059 -0.83247,-0.992334 -0.6771,-1.607434 0.0619,-0.5882 0.37202,-1.09357 0.74716,-1.52682 0.31412,-0.66493 1.07661,-0.17314 1.28444,0.29965 0.18083,0.55686 0.41632,1.20146 0.21108,1.75232 -0.27882,0.540145 -0.66609,1.155894 -1.3446,1.183264 -0.0864,0.0155 -0.17115,-0.0335 -0.22098,-0.10097 z m 0.65372,-0.647409 c 0.62978,-0.324955 0.62945,-1.066785 0.48713,-1.667705 -0.002,-0.57228 -0.85235,-0.82985 -0.83796,-0.10555 -0.51646,0.34768 -0.61988,1.108 -0.44396,1.663545 0.1726,0.26655 0.54877,0.27849 0.79479,0.10972 z m 2.18265,0.22899 c -0.48519,-0.549995 0.67467,-0.513015 1.02998,-0.584085 1.14277,-0.27955 2.32188,-0.38864 3.46377,-0.66679 -0.10969,-0.31459 -0.68398,-0.79779 -0.17604,-1.22255 0.28074,-0.57683 -0.74448,-0.77731 -0.58538,-1.41463 0.29335,-0.51096 0.86539,-1.01281 1.47857,-1.01525 0.52276,0.36249 0.51424,1.05736 0.26209,1.58005 -0.22291,0.37746 -0.61922,0.65853 -0.10259,1.00544 0.44799,0.35077 -0.45889,1.1613 0.31075,0.98956 0.3724,0.0257 1.29619,-0.33602 1.07743,0.36319 -0.72547,0.21582 -1.50277,0.13197 -2.24072,0.29783 -1.4036,0.15932 -2.76635,0.553945 -4.16605,0.734975 -0.11865,0.0564 -0.25076,-0.004 -0.35182,-0.0677 z m 4.95417,-1.904515 c 0.10286,-0.70068 -0.6757,-0.0663 -0.14986,0.10194 l 0.0905,-0.0303 z m 0.0394,-1.59736 c 0.25178,-0.33978 0.17004,-1.12515 -0.35202,-0.61774 -0.59844,0.12614 0.24622,1.28819 0.35202,0.61774 z m -2.40153,2.03763 c -0.4246,-0.35842 0.24885,-1.508 -0.4108,-1.44981 -0.44075,0.22949 -1.52278,0.20017 -1.14456,0.95665 0.067,0.86714 -0.82035,0.21105 -0.54674,-0.31912 0.0697,-0.63783 0.1404,-1.26873 0.17,-1.90935 -0.0591,-0.5362 0.70463,-0.70195 0.55411,-0.0576 -0.0407,0.40833 -0.28341,1.16954 0.42179,0.8907 0.60148,-0.0122 1.14789,-0.24094 1.02022,-0.93329 -0.0249,-0.62101 0.65276,-0.55373 0.51315,0.0311 -0.0791,0.77862 -0.26417,1.57589 -0.12757,2.3544 0.19011,0.2463 -0.25829,0.91906 -0.44961,0.43638 z"
       style="fill:#333333;fill-opacity:1;stroke-width:1"
       id="path11" /></g></svg>
