<?xml version="1.0" encoding="UTF-8" standalone="no"?>
<!-- Created with Inkscape (http://www.inkscape.org/) -->

<svg
   width="16.933332mm"
   height="16.933334mm"
   viewBox="0 0 16.933332 16.933334"
   version="1.1"
   id="svg1"
   inkscape:version="1.4.3 (0d15f75042, 2025-12-25)"
   sodipodi:docname="tips.svg"
   xml:space="preserve"
   inkscape:export-filename="kompas.svg"
   inkscape:export-xdpi="96"
   inkscape:export-ydpi="96"
   xmlns:inkscape="http://www.inkscape.org/namespaces/inkscape"
   xmlns:sodipodi="http://sodipodi.sourceforge.net/DTD/sodipodi-0.dtd"
   xmlns="http://www.w3.org/2000/svg"
   xmlns:svg="http://www.w3.org/2000/svg"><sodipodi:namedview
     id="namedview1"
     pagecolor="#ffffff"
     bordercolor="#000000"
     borderopacity="0.25"
     inkscape:showpageshadow="2"
     inkscape:pageopacity="0.0"
     inkscape:pagecheckerboard="0"
     inkscape:deskcolor="#d1d1d1"
     inkscape:document-units="px"
     inkscape:zoom="1"
     inkscape:cx="111"
     inkscape:cy="80.5"
     inkscape:window-width="1920"
     inkscape:window-height="1019"
     inkscape:window-x="0"
     inkscape:window-y="0"
     inkscape:window-maximized="1"
     inkscape:current-layer="layer1"><inkscape:page
       x="0"
       y="-6.0006745e-20"
       width="16.933332"
       height="16.933334"
       id="page2"
       margin="0"
       bleed="0" /></sodipodi:namedview><defs
     id="defs1" /><g
     inkscape:label="Layer 1"
     inkscape:groupmode="layer"
     id="layer1"
     transform="translate(-94.050501,-39.793727)"><path
       d="m 101.21345,40.82707 c -0.565,0.10328 -1.08862,0.156951 -1.594819,0.510668 -2.411276,1.684966 -1.58853,5.26586 -0.432712,7.561025 0.293887,0.583601 0.992791,1.090282 1.186341,1.676253 0.16224,0.491286 -0.0898,1.25876 -0.17364,1.753322 -0.13899,0.81984 -0.12729,1.551797 0.1132,2.342166 0.12491,0.41078 0.15258,1.160845 0.68419,1.116925 0.33481,-0.02771 0.61511,-0.538718 0.87012,-0.75814 0.35738,-0.307471 0.92737,-0.646325 1.13663,-1.115236 0.5039,-1.129252 -0.2189,-2.768728 0.27043,-3.889015 0.22888,-0.524018 0.86435,-0.517099 1.27493,-0.707656 0.78979,-0.366534 1.43597,-0.893931 1.874,-1.756996 0.90211,-1.777489 0.73813,-4.436135 -0.79311,-5.704557 -1.22644,-1.015942 -2.94947,-1.29668 -4.41553,-1.028759 m 1.30496,9.326378 c -0.12299,-0.587867 0.33394,-1.141373 0.52192,-1.672963 0.47163,-1.33362 1.5937,-3.769329 1.11319,-3.774781 -0.36842,-0.0041 -0.90514,0.676739 -1.02298,0.872297 0.0206,-0.2489 -0.0111,-0.941627 -0.24257,-0.887141 -0.15216,0.03582 -0.49586,0.66998 -0.73199,1.112871 -0.0544,0.08168 -0.10268,0.08168 -0.14492,0 -0.48069,-1.115101 -0.65675,-0.49702 -1.37736,-0.25094 0.006,-0.267788 -0.28087,-0.967428 -0.45717,-0.404557 -0.13366,0.42668 0.17703,1.094031 0.29329,1.488704 0.32764,1.112256 0.66148,2.28583 0.8888,3.432863 0,0 -0.77868,-0.271062 -1.0891,-0.603448 -0.225,-0.240921 -0.335741,-0.53592 -0.577351,-0.830592 -0.234835,-0.286414 -0.555387,-1.260836 -0.677802,-1.660946 -0.541709,-1.770703 -0.780321,-3.212864 0.478587,-4.662241 0.655626,-0.754791 1.513396,-0.822982 2.373116,-0.860117 1.20845,-0.05215 2.15788,-0.07068 3.23227,0.721081 1.51789,1.118569 1.70968,3.905405 0.64806,5.470465 -0.73746,1.087185 -1.80319,1.000633 -2.71073,1.725641 -0.26349,0.210487 -0.33232,0.512949 -0.51718,0.783804 m 0.14507,-4.34985 c 0.2341,0.902941 0.62934,0.101336 0.87437,-0.0907 l -1.5993,4.022181 h -0.14492 c -0.31126,-0.810298 -0.7091,-1.885792 -0.81408,-2.7604 -0.0412,-0.343093 0.0256,-0.829221 0.32073,-1.017852 0.29234,-0.186868 0.47251,0.38805 0.71111,0.488588 0.33026,0.13914 0.52652,-0.381144 0.65215,-0.64182 m -1e-4,4.851924 -0.14699,1.874664 -0.65043,0.288637 -1.30485,0.764393 c -0.32971,-1.755796 1.69032,-0.835178 1.8848,-2.258505 l -1.6351,0.24165 0.33024,-0.576237 0.92724,0.0203 0.59509,-0.354857 m -0.21788,2.593151 c 0.0816,0.666491 -1.01475,1.507685 -1.52233,1.672964 -0.33397,-1.2157 0.68419,-1.368428 1.52233,-1.672964"
       style="fill:#333333;fill-opacity:1;stroke:none;stroke-width:1"
       id="path5"
       sodipodi:nodetypes="cssssccccsssscccscscccsscssssccsscccccsscccccccccccccc" /></g></svg>
