<?xml version="1.0" encoding="UTF-8" standalone="no"?>
<svg
   xmlns:dc="http://purl.org/dc/elements/1.1/"
   xmlns:cc="http://creativecommons.org/ns#"
   xmlns:rdf="http://www.w3.org/1999/02/22-rdf-syntax-ns#"
   xmlns:svg="http://www.w3.org/2000/svg"
   xmlns="http://www.w3.org/2000/svg"
   xmlns:sodipodi="http://sodipodi.sourceforge.net/DTD/sodipodi-0.dtd"
   xmlns:inkscape="http://www.inkscape.org/namespaces/inkscape"
   fill="#FFFFFF"
   viewBox="0 0 24 24"
   width="24px"
   height="24px"
   version="1.1"
   id="svg4"
   sodipodi:docname="icons8-github.svg"
   inkscape:version="1.0.1 (3bc2e813f5, 2020-09-07)">
  <metadata
     id="metadata10">
    <rdf:RDF>
      <cc:Work
         rdf:about="">
        <dc:format>image/svg+xml</dc:format>
        <dc:type
           rdf:resource="http://purl.org/dc/dcmitype/StillImage" />
      </cc:Work>
    </rdf:RDF>
  </metadata>
  <defs
     id="defs8" />
  <sodipodi:namedview
     pagecolor="#ffffff"
     bordercolor="#666666"
     borderopacity="1"
     objecttolerance="10"
     gridtolerance="10"
     guidetolerance="10"
     inkscape:pageopacity="0"
     inkscape:pageshadow="2"
     inkscape:window-width="1920"
     inkscape:window-height="1017"
     id="namedview6"
     showgrid="false"
     inkscape:zoom="16.792858"
     inkscape:cx="-1.6978905"
     inkscape:cy="17.078491"
     inkscape:window-x="-8"
     inkscape:window-y="-8"
     inkscape:window-maximized="1"
     inkscape:current-layer="svg4" />
  <path
     d="M 12,0 C 5.3718756,0 0,5.3718756 0,12 0,18.628126 5.3718756,24 12,24 18.628126,24 24,18.628126 24,12 24,5.3718756 18.628126,0 12,0 Z m 0,2.4 c 5.292187,0 9.6,4.3078126 9.6,9.6 0,0.5625 -0.05624,1.115625 -0.15,1.65 -0.295313,-0.06563 -0.73125,-0.145313 -1.2375,-0.15 -0.375,-0.0047 -0.84375,0.05624 -1.2375,0.1125 0.135937,-0.417188 0.225,-0.876563 0.225,-1.35 0,-1.153125 -0.5625,-2.226563 -1.4625,-3.1124999 0.248437,-0.923437 0.492187,-2.5078129 -0.15,-3.1499998 -1.898437,0 -2.948437,1.3546872 -3,1.425 C 14.001563,7.2843758 13.396876,7.2000002 12.75,7.2000002 c -0.829688,0 -1.621874,0.1499999 -2.3625,0.375 l 0.225,-0.1875003 c 0,0 -1.0546874,-1.4624999 -3,-1.4624999 C 6.9328128,6.6093759 7.2421874,8.3437499 7.5,9.2250003 6.5812503,10.101563 6.0000003,11.1375 6.0000003,12.2625 c 0,0.39375 0.09375,0.76875 0.1874998,1.125 -0.3328129,-0.0375 -1.5328129,-0.15 -2.0250001,-0.15 -0.4359372,0 -1.1109372,0.103128 -1.65,0.225 C 2.4375,12.984375 2.4,12.496876 2.4,12 2.4,6.7078126 6.7078126,2.4 12,2.4 Z M 4.1625,13.5375 c 0.4734373,0 1.9125,0.16875 2.1000003,0.1875 0.023437,0.06563 0.046874,0.126563 0.075,0.1875 -0.5156244,-0.04687 -1.5140628,-0.117192 -2.175,-0.0375 -0.4406244,0.05157 -1.0031244,0.210937 -1.5,0.3375 -0.0375,-0.15 -0.084374,-0.295313 -0.1125,-0.450001 0.525,-0.1125 1.2140628,-0.224999 1.6124997,-0.224999 z m 16.05,0.2625 c 0.478126,0.0047 0.914063,0.08437 1.2,0.15 -0.01406,0.07969 -0.05624,0.145312 -0.075,0.225 -0.304687,-0.07031 -0.80625,-0.173437 -1.3875,-0.1875 -0.28125,-0.0047 -0.73125,0.0094 -1.125,0.0375 0.01876,-0.0375 0.02344,-0.075 0.0375,-0.1125 0.407812,-0.05624 0.928125,-0.117192 1.35,-0.1125 z m -15.3,0.3375 c 0.675,0.0047 1.3078131,0.05157 1.5749999,0.075 0.6281258,1.171875 1.8984373,2.039062 3.8625001,2.4 C 9.8671872,16.879687 9.4359371,17.254687 9.1125003,17.7 8.8312501,17.72344 8.5359371,17.7375 8.2500001,17.7375 7.4156255,17.7375 6.8953129,16.992187 6.45,16.35 6.0000003,15.707813 5.4468756,15.6375 5.1375,15.6 4.8234372,15.562502 4.7156256,15.740625 4.875,15.8625 5.7890628,16.565626 6.1171872,17.4 6.4874999,18.15 c 0.3328128,0.675 1.0312503,1.05 1.8,1.05 h 0.1499999 c -0.023437,0.13125 -0.037498,0.253125 -0.037498,0.375 v 1.3125 C 5.6296874,19.767187 3.520313,17.4 2.7375002,14.475 3.2296874,14.353126 3.782813,14.226563 4.2000002,14.175 4.3921874,14.15156 4.6359374,14.13281 4.9125,14.1375 Z m 15.0375,0.15 c 0.539062,0.01406 1.017187,0.117192 1.3125,0.1875 -0.660937,2.484375 -2.292187,4.551563 -4.4625,5.8125 V 19.575 c 0,-1.021875 -0.80625,-2.334375 -1.95,-2.9625 1.898437,-0.346875 3.135937,-1.176563 3.7875,-2.2875 0.454687,-0.03281 0.989063,-0.04687 1.3125,-0.0375 z M 12.6,19.2 c 0.328126,0 0.6,0.271876 0.6,0.6 v 1.725 C 12.80625,21.576565 12.407813,21.6 12,21.6 v -1.8 c 0,-0.328124 0.271875,-0.6 0.6,-0.6 z m -2.4,1.2 c 0.328125,0 0.6,0.271875 0.6,0.6 v 0.525 C 10.396876,21.473435 9.9890627,21.398437 9.5999998,21.3 V 21 c 0,-0.328125 0.271876,-0.6 0.6000002,-0.6 z m 4.8,0 c 0.290626,0 0.54375,0.210937 0.6,0.4875 -0.389063,0.159375 -0.7875,0.304687 -1.2,0.4125 V 21 c 0,-0.328125 0.271876,-0.6 0.6,-0.6 z"
     id="path2"
     style="fill:#ffffff;fill-opacity:1;stroke-width:0.999999" />
</svg>
