<?xml version="1.0" encoding="UTF-8" standalone="no"?>
<svg
   xmlns:dc="http://purl.org/dc/elements/1.1/"
   xmlns:cc="http://creativecommons.org/ns#"
   xmlns:rdf="http://www.w3.org/1999/02/22-rdf-syntax-ns#"
   xmlns:svg="http://www.w3.org/2000/svg"
   xmlns="http://www.w3.org/2000/svg"
   xmlns:sodipodi="http://sodipodi.sourceforge.net/DTD/sodipodi-0.dtd"
   xmlns:inkscape="http://www.inkscape.org/namespaces/inkscape"
   viewBox="0 0 24 24"
   width="24px"
   height="24px"
   version="1.1"
   id="svg4"
   sodipodi:docname="icons8-телеграмма-app.svg"
   inkscape:version="1.0.1 (3bc2e813f5, 2020-09-07)">
  <metadata
     id="metadata10">
    <rdf:RDF>
      <cc:Work
         rdf:about="">
        <dc:format>image/svg+xml</dc:format>
        <dc:type
           rdf:resource="http://purl.org/dc/dcmitype/StillImage" />
      </cc:Work>
    </rdf:RDF>
  </metadata>
  <defs
     id="defs8" />
  <sodipodi:namedview
     pagecolor="#ffffff"
     bordercolor="#666666"
     borderopacity="1"
     objecttolerance="10"
     gridtolerance="10"
     guidetolerance="10"
     inkscape:pageopacity="0"
     inkscape:pageshadow="2"
     inkscape:window-width="1004"
     inkscape:window-height="669"
     id="namedview6"
     showgrid="false"
     inkscape:zoom="6.9255155"
     inkscape:cx="12.17847"
     inkscape:cy="19.196509"
     inkscape:window-x="631"
     inkscape:window-y="216"
     inkscape:window-maximized="0"
     inkscape:current-layer="svg4" />
  <path
     d="m 21.96141,1.1902135 c -0.346803,0.015086 -0.665067,0.1148308 -0.944652,0.2250289 -0.258295,0.1017238 -1.185854,0.4915801 -2.662842,1.1110799 -1.476987,0.6195 -3.434119,1.4408791 -5.520238,2.3182661 -4.1722413,1.7547741 -8.8607705,3.728673 -11.2631641,4.73967 -0.0825,0.03437 -0.4175513,0.1369441 -0.787601,0.4195846 C 0.4120049,10.287141 0,10.901963 0,11.574358 c 0,0.542411 0.2707714,1.094836 0.5977329,1.411118 0.3269615,0.316281 0.6583291,0.464152 0.9352762,0.574293 v -0.0024 c 0.9361532,0.372966 3.7318112,1.491643 4.3974389,1.758038 0.2361061,0.707524 1.2496927,3.736526 1.4908162,4.498234 h -0.00234 c 0.1704361,0.53912 0.3365618,0.890466 0.5672601,1.183745 0.1153494,0.14664 0.2530363,0.27952 0.4219283,0.384425 0.0648,0.04025 0.136554,0.07147 0.2086211,0.100789 0.01004,0.0043 0.02039,0.0053 0.03047,0.0094 l -0.02813,-0.0071 c 0.0209,0.0084 0.03965,0.0208 0.06095,0.02813 0.0347,0.012 0.05876,0.01152 0.105483,0.0211 0.164426,0.05059 0.3285551,0.08438 0.4805301,0.08438 0.652417,0 1.0524782,-0.353951 1.0524782,-0.35395 l 0.02579,-0.01876 2.817548,-2.383899 3.450443,3.192598 c 0.06301,0.08911 0.556741,0.757254 1.699426,0.757254 0.681837,0 1.220924,-0.337494 1.565825,-0.691495 0.344901,-0.354 0.559749,-0.716214 0.656334,-1.207186 l 0.0024,-0.0024 c 0.07703,-0.396269 3.380122,-16.9826468 3.380122,-16.9826468 l -0.0071,0.028128 C 24.01213,3.4972629 24.042486,3.0535012 23.921086,2.6012749 23.799644,2.1490489 23.471897,1.7077231 23.077228,1.4761306 22.682508,1.2445954 22.308212,1.1751271 21.96141,1.1902135 Z M 21.487912,3.8178942 C 21.357382,4.4732136 18.398484,19.338343 18.215618,20.270784 l -4.983452,-4.610746 -3.3684012,2.84802 0.9329322,-3.647342 c 0,0 6.435882,-6.5146036 6.823532,-6.8938522 0.31204,-0.3036389 0.377392,-0.4100776 0.377392,-0.5156911 0,-0.140418 -0.07227,-0.2414373 -0.239094,-0.2414373 -0.150019,0 -0.353763,0.1437559 -0.461777,0.2109645 C 15.924196,8.2764144 10.078145,11.607921 7.2032674,13.243322 7.030256,13.173948 4.4327563,12.130916 3.0332014,11.572014 5.5226381,10.524284 9.7899548,8.7289004 13.764265,7.0573722 15.850031,6.1801342 17.806583,5.3580152 19.28216,4.7391061 20.527735,4.2166689 21.177474,3.9461611 21.487912,3.8178942 Z M 18.180457,20.441901 c 0,0 0.0024,0 0.0024,0 -5.4e-5,2.76e-4 -0.0023,0.0067 -0.0024,0.0071 0.0016,-0.0078 -0.0011,-9.6e-4 0,-0.0071 z"
     id="path2"
     style="stroke-width:1;stroke:none;stroke-opacity:1;fill:#ffffff;fill-opacity:1" />
</svg>
