<?xml version="1.0" encoding="UTF-8" standalone="no"?>
<svg
   xmlns:dc="http://purl.org/dc/elements/1.1/"
   xmlns:cc="http://creativecommons.org/ns#"
   xmlns:rdf="http://www.w3.org/1999/02/22-rdf-syntax-ns#"
   xmlns:svg="http://www.w3.org/2000/svg"
   xmlns="http://www.w3.org/2000/svg"
   xmlns:sodipodi="http://sodipodi.sourceforge.net/DTD/sodipodi-0.dtd"
   xmlns:inkscape="http://www.inkscape.org/namespaces/inkscape"
   viewBox="0 0 24 24"
   width="24px"
   height="24px"
   version="1.1"
   id="svg4"
   sodipodi:docname="icons8-вконтакте.svg"
   inkscape:version="1.0.1 (3bc2e813f5, 2020-09-07)">
  <metadata
     id="metadata10">
    <rdf:RDF>
      <cc:Work
         rdf:about="">
        <dc:format>image/svg+xml</dc:format>
        <dc:type
           rdf:resource="http://purl.org/dc/dcmitype/StillImage" />
      </cc:Work>
    </rdf:RDF>
  </metadata>
  <defs
     id="defs8" />
  <sodipodi:namedview
     pagecolor="#ffffff"
     bordercolor="#666666"
     borderopacity="1"
     objecttolerance="10"
     gridtolerance="10"
     guidetolerance="10"
     inkscape:pageopacity="0"
     inkscape:pageshadow="2"
     inkscape:window-width="1125"
     inkscape:window-height="679"
     id="namedview6"
     showgrid="false"
     inkscape:zoom="14.135447"
     inkscape:cx="11.701278"
     inkscape:cy="16.56836"
     inkscape:window-x="485"
     inkscape:window-y="213"
     inkscape:window-maximized="0"
     inkscape:current-layer="svg4" />
  <path
     id="rect835"
     style="fill:#ffffff;fill-rule:evenodd;stroke-width:1;fill-opacity:1"
     d="m 11.540876,5.145561 c -1.286832,-0.012924 -2.3798944,0.00558 -2.9965394,0.306505 -0.411713,0.2030867 -0.727536,0.6520699 -0.53368,0.6779173 0.238165,0.02954 0.779346,0.1440365 1.06736,0.5372854 0.369249,0.5040238 0.356988,1.6370988 0.356988,1.6370988 0,0 0.211337,3.1172655 -0.49762,3.5049765 -0.485562,0.265859 -1.152777,-0.279041 -2.5854624,-2.7585455 -0.734804,-1.272064 -1.287321,-2.6756111 -1.287321,-2.6756111 0,0 -0.10913,-0.2635511 -0.299294,-0.4038656 C 4.5326812,5.8014675 4.2099926,5.7441474 4.2099926,5.7441474 l -3.42925167,0.014419 c 0,0 -0.5129959,0.00738 -0.7031587,0.2307804 -0.1680081,0.2012404 -0.010819,0.5949805 -0.010819,0.5949805 0,0 2.68371577,6.2595427 5.72263097,9.4295427 2.7896734,2.907831 5.9534118,2.643155 5.9534118,2.643155 h 1.435166 c 0,0 0.434733,0.02542 0.656282,-0.212752 0.204933,-0.221549 0.198325,-0.562526 0.198325,-0.562526 0,0 -0.02815,-1.92612 0.865427,-2.210441 0.880657,-0.278783 2.011079,1.863002 3.20929,2.686427 0.904659,0.62403 1.593826,0.4868 1.593826,0.4868 l 3.202078,-0.04328 c 0,0 1.677341,-0.106048 0.883456,-1.427954 -0.06646,-0.108928 -0.463436,-0.976834 -2.383529,-2.762153 -2.010558,-1.868397 -1.7389,-1.564978 0.681524,-4.7959036 1.475148,-1.966249 2.06332,-3.1701717 1.878696,-3.6852734 -0.177239,-0.4929468 -1.26208,-0.3605942 -1.26208,-0.3605942 l -3.609549,0.021636 c 0,0 -0.265772,-0.037069 -0.465166,0.082937 -0.193856,0.1163133 -0.320929,0.3894418 -0.320929,0.3894418 0,0 -0.571702,1.5237858 -1.3342,2.8198488 -1.604385,2.7324396 -2.245723,2.8743126 -2.509736,2.7044586 -0.611106,-0.39325 -0.457953,-1.584741 -0.457953,-2.4340136 -2e-6,-2.649359 0.40095,-3.7524892 -0.782491,-4.0386568 -0.391404,-0.096005 -0.67786,-0.1584021 -1.680369,-0.1694795 z" />
</svg>
